<?xml version="1.0" encoding="UTF-8"?>
<svg width="40px" height="40px" viewBox="0 0 40 40" version="1.1" xmlns="http://www.w3.org/2000/svg" xmlns:xlink="http://www.w3.org/1999/xlink">
    <title>Icon-Architecture/32/Arch_Amazon-MemoryDB-for-Redis_32</title>
    <defs>
        <linearGradient x1="0%" y1="100%" x2="100%" y2="0%" id="linearGradient-1">
            <stop stop-color="#2E27AD" offset="0%"></stop>
            <stop stop-color="#527FFF" offset="100%"></stop>
        </linearGradient>
    </defs>
    <g id="Icon-Architecture/32/Arch_Amazon-MemoryDB-for-Redis_32" stroke="none" stroke-width="1" fill="none" fill-rule="evenodd">
        <g id="Rectangle" fill="url(#linearGradient-1)">
            <rect x="0" y="0" width="40" height="40"></rect>
        </g>
        <g id="Icon-Service/32/Amazon-MemoryDB-for-Redis_32" transform="translate(4.000000, 4.000000)" fill="#FFFFFF">
            <path d="M11.26,9.09 C6.393,9.09 3,7.749 3,6.545 C3,5.341 6.393,4 11.26,4 C16.077,4 19.06,5.321 19.06,6.545 C19.06,7.769 16.077,9.09 11.26,9.09 L11.26,9.09 Z M18.943,16.591 C19.892,16.591 20.838,16.697 21.755,16.906 L21.978,15.931 C21.33,15.783 20.667,15.701 20,15.65 L20,6.991 C20.036,6.846 20.06,6.698 20.06,6.545 C20.06,4.425 16.524,3 11.26,3 C6.658,3 2,4.218 2,6.545 L2,26.163 C2,27.577 3.534,28.718 6.321,29.377 L6.551,28.403 C4.361,27.886 3,27.027 3,26.163 L3,22.024 C3.649,22.439 4.477,22.804 5.499,23.088 L5.767,22.124 C4.498,21.771 3.544,21.294 3,20.771 L3,15.018 C4.589,16.055 7.351,16.754 10.627,16.89 L10.668,15.891 C7.12,15.744 4.161,14.91 3,13.757 L3,8.232 C4.612,9.455 7.946,10.09 11.26,10.09 C14.816,10.09 17.579,9.438 19,8.362 L19,15.594 C18.981,15.594 18.962,15.591 18.943,15.591 C13.874,15.591 9.247,18.382 6.867,22.874 L7.75,23.341 C9.956,19.178 14.245,16.591 18.943,16.591 L18.943,16.591 Z M25.411,18.372 C24.613,17.896 23.761,17.507 22.879,17.218 L23.192,16.268 C24.143,16.58 25.062,16.999 25.923,17.513 L25.411,18.372 Z M20.614,29.074 C20.549,28.468 20.317,27.917 19.956,27.464 L25.416,22.301 C27.23,24.021 28.358,26.503 28.488,29.074 L20.614,29.074 Z M17.505,27.263 C18.573,27.263 19.453,28.051 19.614,29.074 L15.396,29.074 C15.557,28.051 16.437,27.263 17.505,27.263 L17.505,27.263 Z M26.141,21.616 L28.023,19.837 L27.335,19.111 L19.223,26.78 C18.729,26.456 18.139,26.263 17.505,26.263 C15.886,26.263 14.565,27.499 14.396,29.074 L8.901,29.074 C9.157,23.818 13.452,19.622 18.695,19.622 C20.105,19.622 21.466,19.915 22.739,20.492 L23.153,19.581 C21.748,18.944 20.248,18.622 18.695,18.622 C12.736,18.622 7.888,23.535 7.888,29.574 L7.888,30.074 L29.5,30.074 L29.5,29.574 C29.5,26.576 28.244,23.632 26.141,21.616 L26.141,21.616 Z" id="Fill-6"></path>
        </g>
    </g>
</svg>