<?xml version="1.0" encoding="UTF-8"?>
<svg width="40px" height="40px" viewBox="0 0 40 40" version="1.1" xmlns="http://www.w3.org/2000/svg" xmlns:xlink="http://www.w3.org/1999/xlink">
    <title>Icon-Architecture/32/Arch_Amazon-FSx_OpenZFS_32</title>
    <defs>
        <linearGradient x1="0%" y1="100%" x2="100%" y2="0%" id="linearGradient-1">
            <stop stop-color="#1B660F" offset="0%"></stop>
            <stop stop-color="#6CAE3E" offset="100%"></stop>
        </linearGradient>
    </defs>
    <g id="Icon-Architecture/32/Arch_Amazon-FSx_OpenZFS_32" stroke="none" stroke-width="1" fill="none" fill-rule="evenodd">
        <g id="Rectangle" fill="url(#linearGradient-1)">
            <rect x="0" y="0" width="40" height="40"></rect>
        </g>
        <g id="Icon-Service/32/Amazon-FSx_OpenZFS_32" transform="translate(4.000000, 4.000000)" fill="#FFFFFF">
            <path d="M24,17.993 L24,16.993 L19,16.993 L19,17.993 L22.747,17.993 L19,22.993 L19,23.993 L24,23.993 L24,22.993 L20.25,22.993 L24,17.993 Z M13.999,18.178 L15.307,18.178 L17.128,15.518 L17.166,15.464 L16.568,14.62 L13.999,18.178 Z M11.929,13.247 L10.5,12.699 C10.038,12.524 9.677,12.359 9.427,12.206 C9.189,12.06 9.016,11.896 8.912,11.718 C8.809,11.541 8.758,11.304 8.758,11.011 C8.758,10.484 8.926,10.091 9.272,9.809 C9.617,9.526 10.127,9.383 10.788,9.383 C11.476,9.383 12.279,9.542 13.172,9.858 L13.298,9.902 L13.298,9.027 L13.242,9.002 C12.854,8.831 12.438,8.696 12.002,8.602 C11.567,8.508 11.145,8.46 10.747,8.46 C9.865,8.46 9.141,8.699 8.596,9.171 C8.047,9.646 7.768,10.274 7.768,11.037 C7.768,11.601 7.938,12.083 8.272,12.468 C8.601,12.847 9.121,13.177 9.819,13.449 L11.367,14.049 C11.887,14.249 12.265,14.475 12.494,14.72 C12.717,14.959 12.829,15.252 12.829,15.591 C12.829,16.162 12.625,16.601 12.204,16.932 C11.783,17.264 11.208,17.433 10.494,17.433 C9.724,17.433 8.868,17.264 7.948,16.932 L7.822,16.886 L7.822,17.759 L7.876,17.785 C8.66,18.164 9.563,18.356 10.56,18.356 C11.53,18.356 12.327,18.101 12.924,17.599 C13.527,17.093 13.833,16.422 13.833,15.604 C13.833,15.042 13.677,14.566 13.371,14.189 C13.068,13.818 12.583,13.501 11.929,13.247 L11.929,13.247 Z M2,18.129 L2.976,18.129 L2.976,13.829 L6.701,13.829 L6.701,12.933 L2.976,12.933 L2.976,9.583 L7.383,9.583 L7.383,8.687 L2,8.687 L2,18.129 Z M18.202,15.993 L19.554,15.993 L18.206,14.076 L20.841,10.402 L19.548,10.402 L17.493,13.337 L16.912,14.144 L18.202,15.993 Z M17.235,12.752 L15.589,10.402 L14.239,10.402 L16.551,13.662 L17.235,12.752 Z M25,17.993 L28,17.993 L28,16.993 L25,16.993 L25,17.993 Z M25,23.993 L28,23.993 L28,22.993 L25,22.993 L25,23.993 Z M25,20.993 L30,20.993 L30,19.993 L25,19.993 L25,20.993 Z" id="Fill-5"></path>
        </g>
    </g>
</svg>