<?xml version="1.0" encoding="UTF-8"?>
<svg width="40px" height="40px" viewBox="0 0 40 40" version="1.1" xmlns="http://www.w3.org/2000/svg" xmlns:xlink="http://www.w3.org/1999/xlink">
    <title>Icon-Architecture/32/Arch_Amazon-FSx-for-NetApp_Storage_32</title>
    <defs>
        <linearGradient x1="0%" y1="100%" x2="100%" y2="0%" id="linearGradient-1">
            <stop stop-color="#1B660F" offset="0%"></stop>
            <stop stop-color="#6CAE3E" offset="100%"></stop>
        </linearGradient>
    </defs>
    <g id="Icon-Architecture/32/Arch_Amazon-FSx-for-NetApp_Storage_32" stroke="none" stroke-width="1" fill="none" fill-rule="evenodd">
        <g id="Rectangle" fill="url(#linearGradient-1)">
            <rect x="0" y="0" width="40" height="40"></rect>
        </g>
        <g id="Icon-Service/32/Amazon-FSx-for-NetApp_32" transform="translate(4.000000, 4.000000)" fill="#FFFFFF">
            <path d="M25.92,25.641 C26.131,25.577 26.274,25.383 26.274,25.163 L26.274,19.909 L25.274,19.909 L25.274,23.524 L23.063,20.236 C22.94,20.054 22.71,19.971 22.502,20.037 C22.291,20.101 22.148,20.296 22.148,20.516 L22.148,25.537 L23.148,25.537 L23.148,22.154 L25.359,25.442 C25.454,25.583 25.611,25.663 25.774,25.663 C25.823,25.663 25.872,25.656 25.92,25.641 L25.92,25.641 Z M16.463,16.223 L16.947,16.906 L15.155,19.524 L14.08,19.524 L16.463,16.223 Z M17.986,15.517 L18.835,16.724 C18.671,17.065 18.544,17.423 18.465,17.796 L16.922,15.587 L17.464,14.835 L19.492,11.941 L20.551,11.941 L17.986,15.517 Z M16.45,14.945 L14.319,11.941 L15.437,11.941 L17.015,14.193 L16.45,14.945 Z M13.196,15.691 C13.489,16.051 13.636,16.503 13.636,17.045 C13.636,17.837 13.345,18.478 12.762,18.967 C12.18,19.456 11.412,19.701 10.46,19.701 C9.473,19.701 8.592,19.514 7.818,19.14 L7.818,18.46 C8.752,18.798 9.611,18.967 10.394,18.967 C11.132,18.967 11.721,18.794 12.162,18.447 C12.602,18.1 12.822,17.628 12.822,17.032 C12.822,16.667 12.702,16.356 12.462,16.098 C12.222,15.84 11.835,15.609 11.301,15.404 L9.753,14.804 C9.068,14.537 8.566,14.219 8.245,13.85 C7.925,13.481 7.765,13.025 7.765,12.482 C7.765,11.744 8.03,11.145 8.559,10.687 C9.088,10.229 9.784,10 10.647,10 C11.039,10 11.45,10.047 11.881,10.14 C12.313,10.233 12.72,10.365 13.102,10.534 L13.102,11.214 C12.195,10.894 11.39,10.734 10.687,10.734 C10.002,10.734 9.477,10.883 9.113,11.181 C8.748,11.479 8.566,11.904 8.566,12.455 C8.566,12.767 8.621,13.018 8.732,13.209 C8.843,13.401 9.026,13.574 9.279,13.73 C9.533,13.885 9.895,14.052 10.367,14.23 L11.795,14.777 C12.435,15.026 12.902,15.331 13.196,15.691 L13.196,15.691 Z M2,19.474 L2.787,19.474 L2.787,15.177 L6.51,15.177 L6.51,14.47 L2.787,14.47 L2.787,10.934 L7.191,10.934 L7.191,10.227 L2,10.227 L2,19.474 Z M27.698,23.145 L27.616,22.148 C27.761,22.135 29.047,21.974 29.047,20.59 C29.047,19.442 28.155,19.117 27.624,19.026 C27.361,18.981 27.18,18.736 27.213,18.471 C27.178,18.016 26.953,17.641 26.612,17.541 C26.346,17.463 26.068,17.566 25.889,17.81 C25.777,17.959 25.596,18.034 25.413,18.008 C25.23,17.981 25.077,17.855 25.015,17.681 C24.857,17.233 24.629,16.858 24.339,16.566 C23.986,16.214 23.023,15.453 21.658,16.031 C20.889,16.357 20.263,17.335 20.263,18.212 C20.263,18.314 20.27,18.413 20.281,18.512 C20.31,18.761 20.15,18.993 19.908,19.054 C19.37,19.191 18.73,19.566 18.73,20.572 C18.73,20.642 18.733,20.709 18.738,20.775 C18.811,21.537 19.505,22.138 20.319,22.139 L20.319,23.139 C18.994,23.137 17.862,22.139 17.742,20.865 C17.734,20.768 17.73,20.672 17.73,20.572 C17.73,19.467 18.295,18.612 19.263,18.216 L19.263,18.212 C19.263,16.928 20.125,15.594 21.268,15.11 C22.601,14.544 24.015,14.826 25.047,15.861 C25.29,16.105 25.5,16.388 25.673,16.706 C26.045,16.51 26.478,16.461 26.893,16.581 C27.558,16.776 28.019,17.343 28.167,18.127 C29.133,18.413 30.047,19.177 30.047,20.59 C30.047,22.459 28.511,23.078 27.698,23.145 L27.698,23.145 Z" id="Fill-8"></path>
        </g>
    </g>
</svg>