<?xml version="1.0" encoding="UTF-8"?>
<svg width="40px" height="40px" viewBox="0 0 40 40" version="1.1" xmlns="http://www.w3.org/2000/svg" xmlns:xlink="http://www.w3.org/1999/xlink">
    <title>Icon-Architecture/32/Arch_Amazon-FSx-for-WFS_32</title>
    <defs>
        <linearGradient x1="0%" y1="100%" x2="100%" y2="0%" id="linearGradient-1">
            <stop stop-color="#1B660F" offset="0%"></stop>
            <stop stop-color="#6CAE3E" offset="100%"></stop>
        </linearGradient>
    </defs>
    <g id="Icon-Architecture/32/Arch_Amazon-FSx-for-WFS_32" stroke="none" stroke-width="1" fill="none" fill-rule="evenodd">
        <g id="Rectangle" fill="url(#linearGradient-1)">
            <rect x="0" y="0" width="40" height="40"></rect>
        </g>
        <g id="Icon-Service/32/Amazon-FSx-for-WFS_32" transform="translate(4.000000, 4.000000)" fill="#FFFFFF">
            <path d="M29,21 L23,21 L23,21.5 C23,21.776 23.225,22 23.5,22 L28.5,22 C28.775,22 29,21.776 29,21.5 L29,21 Z M24,20 L28,20 L28,17 L24,17 L24,20 Z M30,20.5 L30,21.5 C30,22.327 29.327,23 28.5,23 L23.5,23 C22.673,23 22,22.327 22,21.5 L22,20.5 C22,20.224 22.224,20 22.5,20 L23,20 L23,16.5 C23,16.224 23.224,16 23.5,16 L28.5,16 C28.776,16 29,16.224 29,16.5 L29,20 L29.5,20 C29.776,20 30,20.224 30,20.5 L30,20.5 Z M13.414,15.773 L11.75,15.112 C11.2,14.897 10.777,14.695 10.482,14.507 C10.188,14.319 9.975,14.109 9.845,13.878 C9.715,13.647 9.65,13.344 9.65,12.967 C9.65,12.301 9.863,11.787 10.288,11.427 C10.713,11.067 11.324,10.887 12.123,10.887 C12.941,10.887 13.88,11.081 14.937,11.467 L14.937,10.645 C14.491,10.441 14.018,10.282 13.515,10.169 C13.012,10.057 12.532,10 12.076,10 C11.07,10 10.26,10.277 9.643,10.831 C9.025,11.384 8.718,12.107 8.718,12.999 C8.718,13.655 8.904,14.206 9.277,14.652 C9.65,15.099 10.236,15.482 11.034,15.805 L12.838,16.531 C13.46,16.778 13.911,17.058 14.191,17.369 C14.471,17.681 14.611,18.057 14.611,18.498 C14.611,19.218 14.354,19.788 13.841,20.207 C13.328,20.626 12.642,20.836 11.781,20.836 C10.868,20.836 9.868,20.632 8.779,20.224 L8.779,21.046 C9.682,21.497 10.708,21.723 11.858,21.723 C12.968,21.723 13.861,21.428 14.541,20.836 C15.22,20.245 15.56,19.471 15.56,18.514 C15.56,17.858 15.389,17.313 15.046,16.877 C14.704,16.442 14.16,16.074 13.414,15.773 L13.414,15.773 Z M16.077,21.509 L17.329,21.509 L19.417,18.346 L18.854,17.52 L16.077,21.509 Z M2,21.449 L2.917,21.449 L2.917,16.257 L7.256,16.257 L7.256,15.402 L2.917,15.402 L2.917,11.129 L8.049,11.129 L8.049,10.274 L2,10.274 L2,21.449 Z M19.496,15.067 L17.658,12.346 L16.354,12.346 L18.838,15.976 L19.496,15.067 Z M22.21,19 L21,19 L19.389,16.751 L22.383,12.346 L23.617,12.346 L20.629,16.667 L22.21,19 Z" id="Amazon-FSx-for-WFS_Icon_32_Squid"></path>
        </g>
    </g>
</svg>