<?xml version="1.0" encoding="UTF-8"?>
<svg width="24px" height="24px" viewBox="0 0 24 24" version="1.1" xmlns="http://www.w3.org/2000/svg" xmlns:xlink="http://www.w3.org/1999/xlink">
    <title>Icon-Architecture/16/Arch_AWS-rePost_16</title>
    <defs>
        <linearGradient x1="0%" y1="100%" x2="100%" y2="0%" id="linearGradient-1">
            <stop stop-color="#2E27AD" offset="0%"></stop>
            <stop stop-color="#527FFF" offset="100%"></stop>
        </linearGradient>
    </defs>
    <g id="Icon-Architecture/16/Arch_AWS-rePost_16" stroke="none" stroke-width="1" fill="none" fill-rule="evenodd">
        <g id="Rectangle" fill="url(#linearGradient-1)">
            <rect x="0" y="0" width="24" height="24"></rect>
        </g>
        <g id="Icon-Service/16/AWS-rePost_16" transform="translate(4.000000, 4.000000)" fill="#FFFFFF">
            <path d="M3.61806028,6 L9.61806028,6 L9.61806028,5 L3.61806028,5 L3.61806028,6 Z M9.12906028,13 C9.34406028,11.827 10.2960603,10.94 11.4360603,10.94 C11.8560603,10.94 12.2670603,11.062 12.6260603,11.292 C13.2070603,11.666 13.6100603,12.293 13.7410603,13 L9.12906028,13 Z M9.43806028,8 L6.11806028,8 C5.84106028,8 5.61806028,8.224 5.61806028,8.5 L5.61806028,9.2 L4.97306028,8.225 C4.88006028,8.084 4.72406028,8 4.55606028,8 L3.25306028,8.001 C2.51106028,7.954 1.81706028,7.558 1.39606028,6.941 C0.990060283,6.345 0.890060283,5.63 1.11606028,4.93 C1.23906028,4.55 1.48206028,4.199 1.83806028,3.885 C2.49006028,3.314 3.40206028,3 4.40606028,3 L10.4880603,3 C11.3950603,3 12.2070603,3.25 12.8360603,3.724 C13.2740603,4.053 13.5600603,4.412 13.7110603,4.821 C14.1050603,5.879 13.7170603,6.811 13.0660603,7.358 C12.6750603,6.888 12.0930603,6.583 11.4360603,6.583 C10.5130603,6.583 9.73306028,7.177 9.43806028,8 L9.43806028,8 Z M12.5650603,8.711 C12.5650603,9.334 12.0580603,9.841 11.4360603,9.841 C10.8140603,9.841 10.3070603,9.334 10.3070603,8.711 C10.3070603,8.089 10.8140603,7.583 11.4360603,7.583 C12.0580603,7.583 12.5650603,8.089 12.5650603,8.711 L12.5650603,8.711 Z M13.1660603,10.451 C13.0680603,10.387 12.9640603,10.335 12.8600603,10.283 C13.2900603,9.893 13.5650603,9.336 13.5650603,8.711 C13.5650603,8.558 13.5470603,8.41 13.5160603,8.266 C14.5770603,7.488 15.2300603,6.036 14.6490603,4.473 C14.4320603,3.888 14.0240603,3.367 13.4380603,2.925 C12.6340603,2.32 11.6140603,2 10.4880603,2 L4.40606028,2 C3.15906028,2 2.01306028,2.402 1.17906028,3.133 C0.684060283,3.568 0.342060283,4.069 0.164060283,4.624 C-0.153939717,5.609 -0.00493971658,6.659 0.570060283,7.504 C1.16306028,8.375 2.14206028,8.933 3.22206028,9 L4.28806028,9 L5.70106028,11.14 C5.79406028,11.283 5.95306028,11.364 6.11806028,11.364 C6.16506028,11.364 6.21406028,11.357 6.26106028,11.343 C6.47306028,11.28 6.61806028,11.085 6.61806028,10.864 L6.61806028,9 L9.33606028,9 C9.40606028,9.509 9.65306028,9.959 10.0170603,10.287 C8.87906028,10.857 8.08406028,12.078 8.08406028,13.5 C8.08406028,13.776 8.30806028,14 8.58406028,14 L14.2870603,14 C14.5630603,14 14.7870603,13.776 14.7870603,13.5 C14.7870603,12.241 14.1810603,11.102 13.1660603,10.451 L13.1660603,10.451 Z" id="Fill-5"></path>
        </g>
    </g>
</svg>