<?xml version="1.0" encoding="UTF-8"?>
<svg width="24px" height="24px" viewBox="0 0 24 24" version="1.1" xmlns="http://www.w3.org/2000/svg" xmlns:xlink="http://www.w3.org/1999/xlink">
    <title>Icon-Architecture/16/Arch_Amazon-FSx_OpenZFS_16</title>
    <defs>
        <linearGradient x1="0%" y1="100%" x2="100%" y2="0%" id="linearGradient-1">
            <stop stop-color="#1B660F" offset="0%"></stop>
            <stop stop-color="#6CAE3E" offset="100%"></stop>
        </linearGradient>
    </defs>
    <g id="Icon-Architecture/16/Arch_Amazon-FSx_OpenZFS_16" stroke="none" stroke-width="1" fill="none" fill-rule="evenodd">
        <g id="Rectangle" fill="url(#linearGradient-1)">
            <rect x="0" y="0" width="24" height="24"></rect>
        </g>
        <g id="Icon-Service/16/Amazon-FSx_OpenZFS_16" transform="translate(4.000000, 4.000000)" fill="#FFFFFF">
            <path d="M10.056,12.145 L11.152,12.145 L12.679,9.915 L12.711,9.87 L12.209,9.162 L10.056,12.145 Z M13.582,8.707 L15.791,5.628 L14.707,5.628 L12.984,8.088 L12.497,8.764 L14.857,12.145 L16,12.145 L13.582,8.707 Z M12.768,7.597 L11.389,5.628 L10.257,5.628 L12.195,8.36 L12.768,7.597 Z M8.321,8.012 L7.124,7.553 C6.736,7.407 6.434,7.268 6.224,7.139 C6.024,7.017 5.88,6.88 5.793,6.731 C5.707,6.583 5.664,6.383 5.664,6.138 C5.664,5.696 5.804,5.367 6.094,5.13 C6.383,4.893 6.811,4.774 7.365,4.774 C7.942,4.774 8.614,4.907 9.363,5.172 L9.469,5.209 L9.469,4.475 L9.421,4.454 C9.096,4.311 8.748,4.198 8.383,4.119 C8.018,4.04 7.664,4 7.331,4 C6.591,4 5.984,4.2 5.528,4.596 C5.068,4.994 4.834,5.52 4.834,6.16 C4.834,6.633 4.977,7.036 5.257,7.359 C5.532,7.677 5.968,7.954 6.553,8.181 L7.851,8.685 C8.286,8.852 8.603,9.041 8.795,9.247 C8.981,9.447 9.076,9.692 9.076,9.976 C9.076,10.455 8.905,10.823 8.552,11.101 C8.199,11.379 7.717,11.52 7.118,11.52 C6.474,11.52 5.756,11.379 4.985,11.1 L4.879,11.062 L4.879,11.794 L4.924,11.815 C5.582,12.133 6.338,12.294 7.174,12.294 C7.987,12.294 8.654,12.08 9.155,11.66 C9.66,11.235 9.917,10.673 9.917,9.988 C9.917,9.517 9.786,9.117 9.53,8.802 C9.276,8.491 8.87,8.225 8.321,8.012 L8.321,8.012 Z M0,4.19 L4.511,4.19 L4.511,4.941 L0.818,4.941 L0.818,7.749 L3.94,7.749 L3.94,8.5 L0.818,8.5 L0.818,12.103 L0,12.103 L0,4.19 Z" id="Fill-7"></path>
        </g>
    </g>
</svg>