<?xml version="1.0" encoding="UTF-8"?>
<svg width="24px" height="24px" viewBox="0 0 24 24" version="1.1" xmlns="http://www.w3.org/2000/svg" xmlns:xlink="http://www.w3.org/1999/xlink">
    <title>Icon-Architecture/16/Arch_Amazon-FSx-for-WFS_16</title>
    <defs>
        <linearGradient x1="0%" y1="100%" x2="100%" y2="0%" id="linearGradient-1">
            <stop stop-color="#1B660F" offset="0%"></stop>
            <stop stop-color="#6CAE3E" offset="100%"></stop>
        </linearGradient>
    </defs>
    <g id="Icon-Architecture/16/Arch_Amazon-FSx-for-WFS_16" stroke="none" stroke-width="1" fill="none" fill-rule="evenodd">
        <g id="Rectangle" fill="url(#linearGradient-1)">
            <rect x="0" y="0" width="24" height="24"></rect>
        </g>
        <g id="Icon-Service/16/Amazon-FSx-for-WFS_16" transform="translate(4.000000, 4.000000)" fill="#FFFFFF">
            <path d="M10.378,8.81967076 L9.477,8.81967076 L8.607,7.51854328 L10.181,5.18591957 L11.047,5.18591957 L9.476,7.47673999 L10.378,8.81967076 Z M8.462,7.72860483 L8.866,8.32430174 L8.826,8.38491652 L7.748,10.0309212 L6.872,10.0309212 L8.462,7.72860483 Z M8.451,7.30430141 L7.014,5.18591957 L7.913,5.18591957 L7.943,5.22981302 L8.908,6.66889136 L8.451,7.30430141 Z M6.907,8.41104358 C6.907,8.92522407 6.724,9.34743733 6.36,9.66618743 C6.003,9.97971212 5.527,10.1396097 4.949,10.1396097 C4.359,10.1396097 3.824,10.0204703 3.359,9.78532681 L3.304,9.75710959 L3.304,9.12692496 L3.438,9.17708891 C4.461,9.56585953 5.386,9.59616692 5.882,9.18544957 C6.117,8.99315442 6.232,8.73606417 6.232,8.40268292 C6.232,8.20620744 6.171,8.04212952 6.047,7.90313357 C5.917,7.75682205 5.701,7.62305151 5.405,7.50495721 L4.5,7.13813332 C4.085,6.96882999 3.775,6.76294877 3.578,6.52571509 C3.375,6.28116583 3.273,5.97704688 3.273,5.62067381 C3.273,5.13993595 3.441,4.74489483 3.772,4.44391113 C4.244,4.01751754 4.963,3.89733308 5.803,4.08753806 C6.061,4.14606267 6.307,4.22862417 6.535,4.33417748 L6.595,4.36134962 L6.595,4.99362442 L6.462,4.94450555 C5.455,4.57454642 4.624,4.56618576 4.225,4.90583751 C4.033,5.06887035 3.941,5.29774337 3.941,5.60499757 C3.941,5.77639107 3.969,5.91329685 4.024,6.01257967 C4.082,6.11499774 4.178,6.20905515 4.312,6.2947519 C4.454,6.38671914 4.662,6.48600196 4.93,6.59155527 L5.767,6.9270267 C6.156,7.08483412 6.445,7.28339976 6.627,7.5174982 C6.814,7.75473189 6.907,8.05571559 6.907,8.41104358 L6.907,8.41104358 Z M0,4.00184131 L3.236,4.00184131 L3.236,4.64352185 L0.66,4.64352185 L0.66,6.59678069 L2.838,6.59678069 L2.838,7.23741614 L0.66,7.23741614 L0.66,9.86475307 L0,9.86475307 L0,4.00184131 Z M15,11.4323765 C15,11.7208193 14.775,11.9549177 14.5,11.9549177 L11.5,11.9549177 C11.225,11.9549177 11,11.7208193 11,11.4323765 L11,10.9098354 L15,10.9098354 L15,11.4323765 Z M12,9.86475307 L14,9.86475307 L14,7.77458845 L12,7.77458845 L12,9.86475307 Z M15.5,9.86475307 L15,9.86475307 L15,7.25204729 C15,6.96360458 14.776,6.72950614 14.5,6.72950614 L11.5,6.72950614 C11.224,6.72950614 11,6.96360458 11,7.25204729 L11,9.86475307 L10.5,9.86475307 C10.224,9.86475307 10,10.0988515 10,10.3872942 L10,11.4323765 C10,12.2966596 10.673,13 11.5,13 L14.5,13 C15.327,13 16,12.2966596 16,11.4323765 L16,10.3872942 C16,10.0988515 15.776,9.86475307 15.5,9.86475307 L15.5,9.86475307 Z" id="Amazon-FSx-for-WFS_Icon_16_Squid"></path>
        </g>
    </g>
</svg>