<?xml version="1.0" encoding="UTF-8"?>
<svg width="24px" height="24px" viewBox="0 0 24 24" version="1.1" xmlns="http://www.w3.org/2000/svg" xmlns:xlink="http://www.w3.org/1999/xlink">
    <title>Icon-Architecture/16/Arch_Amazon-FSx-for-NetApp_Storage_16</title>
    <defs>
        <linearGradient x1="0%" y1="100%" x2="100%" y2="0%" id="linearGradient-1">
            <stop stop-color="#1B660F" offset="0%"></stop>
            <stop stop-color="#6CAE3E" offset="100%"></stop>
        </linearGradient>
    </defs>
    <g id="Icon-Architecture/16/Arch_Amazon-FSx-for-NetApp_Storage_16" stroke="none" stroke-width="1" fill="none" fill-rule="evenodd">
        <g id="Rectangle" fill="url(#linearGradient-1)">
            <rect x="0" y="0" width="24" height="24"></rect>
        </g>
        <g id="Icon-Service/16/Amazon-FSx-for-NetApp_16" transform="translate(4.000000, 4.000000)" fill="#FFFFFF">
            <path d="M9.578,11.758 L10.622,11.758 L12.076,9.634 L12.106,9.591 L11.629,8.917 L9.578,11.758 Z M12.936,8.483 L15.04,5.551 L14.008,5.551 L12.367,7.894 L11.903,8.537 L14.15,11.758 L15.239,11.758 L12.936,8.483 Z M12.161,7.426 L10.848,5.551 L9.769,5.551 L11.615,8.153 L12.161,7.426 Z M7.926,7.821 L6.785,7.384 C6.416,7.245 6.128,7.112 5.929,6.99 C5.738,6.874 5.6,6.743 5.517,6.601 C5.435,6.46 5.394,6.27 5.394,6.037 C5.394,5.616 5.528,5.302 5.805,5.077 C6.08,4.851 6.487,4.737 7.015,4.737 C7.564,4.737 8.205,4.864 8.918,5.116 L9.018,5.152 L9.018,4.453 L8.974,4.433 C8.664,4.297 8.332,4.189 7.984,4.114 C7.637,4.039 7.3,4 6.982,4 C6.278,4 5.7,4.191 5.266,4.568 C4.827,4.947 4.604,5.448 4.604,6.058 C4.604,6.508 4.74,6.892 5.007,7.2 C5.269,7.503 5.684,7.766 6.241,7.983 L7.477,8.462 C7.892,8.621 8.194,8.801 8.377,8.998 C8.555,9.188 8.644,9.422 8.644,9.693 C8.644,10.149 8.481,10.499 8.145,10.763 C7.809,11.029 7.35,11.163 6.78,11.163 C6.166,11.163 5.482,11.029 4.748,10.763 L4.647,10.726 L4.647,11.424 L4.69,11.444 C5.316,11.746 6.037,11.9 6.833,11.9 C7.607,11.9 8.243,11.696 8.72,11.296 C9.201,10.891 9.445,10.356 9.445,9.703 C9.445,9.255 9.321,8.874 9.077,8.574 C8.835,8.278 8.448,8.025 7.926,7.821 L7.926,7.821 Z M6.98108238e-13,4.181 L4.297,4.181 L4.297,4.897 L0.779,4.897 L0.779,7.571 L3.753,7.571 L3.753,8.286 L0.779,8.286 L0.779,11.718 L6.98108238e-13,11.718 L6.98108238e-13,4.181 Z" id="Fill-1"></path>
        </g>
    </g>
</svg>