<?xml version="1.0" encoding="UTF-8"?>
<svg width="40px" height="40px" viewBox="0 0 40 40" version="1.1" xmlns="http://www.w3.org/2000/svg" xmlns:xlink="http://www.w3.org/1999/xlink">
    <title>Icon-Architecture/32/Arch_AWS-Outposts_32</title>
    <defs>
        <linearGradient x1="0%" y1="100%" x2="100%" y2="0%" id="linearGradient-1">
            <stop stop-color="#C8511B" offset="0%"></stop>
            <stop stop-color="#FF9900" offset="100%"></stop>
        </linearGradient>
    </defs>
    <g id="Icon-Architecture/32/Arch_AWS-Outposts_32" stroke="none" stroke-width="1" fill="none" fill-rule="evenodd">
        <g id="Rectangle" fill="url(#linearGradient-1)">
            <rect x="0" y="0" width="40" height="40"></rect>
        </g>
        <g id="Icon-Service/32/AWS-Outposts_32" transform="translate(4.000000, 4.000000)" fill="#FFFFFF">
            <path d="M21,28.9889447 L21,13.9889447 L11,13.9889447 L11,18.9889447 L11,19.9889447 L11,28.9889447 L14,28.9889447 L14,25.4889447 C14,25.2129447 14.224,24.9889447 14.5,24.9889447 L17.5,24.9889447 C17.776,24.9889447 18,25.2129447 18,25.4889447 L18,28.9889447 L21,28.9889447 Z M15,28.9889447 L17,28.9889447 L17,25.9889447 L15,25.9889447 L15,28.9889447 Z M30,28.9889447 L30,29.9889447 L22,29.9889447 L21,29.9889447 L18,29.9889447 L17,29.9889447 L15,29.9889447 L14,29.9889447 L11,29.9889447 L10,29.9889447 L2,29.9889447 L2,28.9889447 L10,28.9889447 L10,19.9889447 L7.156,19.9889447 C5.219,19.9889447 3.478,18.8569447 2.822,17.1729447 C2.676,16.7979447 2.578,16.4069447 2.53,16.0099447 C2.499,15.7659447 2.483,15.5059447 2.483,15.2329447 C2.483,12.3929447 4.147,10.8019447 5.864,10.1739447 L3.286,9.23294474 L3.63,8.29394474 L7.373,9.65994474 C7.632,9.75494474 7.766,10.0419447 7.671,10.3019447 L6.305,14.0449447 L5.365,13.7019447 L6.329,11.0609447 C5.424,11.3609447 3.483,12.3419447 3.483,15.2329447 C3.483,15.4629447 3.497,15.6809447 3.522,15.8879447 C3.561,16.2039447 3.639,16.5129447 3.754,16.8109447 C4.261,18.1139447 5.628,18.9889447 7.156,18.9889447 L10,18.9889447 L10,13.4889447 C10,13.2129447 10.224,12.9889447 10.5,12.9889447 L21.5,12.9889447 C21.776,12.9889447 22,13.2129447 22,13.4889447 L22,28.9889447 L30,28.9889447 Z M18.5,15.9889447 L17.5,15.9889447 C17.224,15.9889447 17,16.2129447 17,16.4889447 L17,17.4889447 C17,17.7649447 17.224,17.9889447 17.5,17.9889447 L18.5,17.9889447 C18.776,17.9889447 19,17.7649447 19,17.4889447 L19,16.4889447 C19,16.2129447 18.776,15.9889447 18.5,15.9889447 L18.5,15.9889447 Z M14.5,15.9889447 L13.5,15.9889447 C13.224,15.9889447 13,16.2129447 13,16.4889447 L13,17.4889447 C13,17.7649447 13.224,17.9889447 13.5,17.9889447 L14.5,17.9889447 C14.776,17.9889447 15,17.7649447 15,17.4889447 L15,16.4889447 C15,16.2129447 14.776,15.9889447 14.5,15.9889447 L14.5,15.9889447 Z M18.5,19.9889447 L17.5,19.9889447 C17.224,19.9889447 17,20.2129447 17,20.4889447 L17,21.4889447 C17,21.7649447 17.224,21.9889447 17.5,21.9889447 L18.5,21.9889447 C18.776,21.9889447 19,21.7649447 19,21.4889447 L19,20.4889447 C19,20.2129447 18.776,19.9889447 18.5,19.9889447 L18.5,19.9889447 Z M14.5,19.9889447 L13.5,19.9889447 C13.224,19.9889447 13,20.2129447 13,20.4889447 L13,21.4889447 C13,21.7649447 13.224,21.9889447 13.5,21.9889447 L14.5,21.9889447 C14.776,21.9889447 15,21.7649447 15,21.4889447 L15,20.4889447 C15,20.2129447 14.776,19.9889447 14.5,19.9889447 L14.5,19.9889447 Z M7.212,8.33494474 L6.251,8.06094474 C6.859,5.92994474 8.363,4.12894474 10.177,3.36094474 C12.977,2.17594474 15.94,2.76494474 18.107,4.93794474 C18.773,5.60694474 19.321,6.41694474 19.74,7.35294474 C20.543,6.69194474 21.598,6.45794474 22.598,6.74794474 C23.981,7.15294474 24.909,8.42294474 25.12,10.1769447 C26.48,10.4989447 29.343,11.6139447 29.343,15.2889447 C29.343,18.3519447 26.947,19.8279447 25.282,20.4859447 L27.56,21.5729447 L27.128,22.4749447 L23.531,20.7589447 C23.282,20.6399447 23.177,20.3409447 23.296,20.0919447 L25.013,16.4949447 L25.915,16.9259447 L24.602,19.6769447 C26.118,19.1559447 28.343,17.9419447 28.343,15.2889447 C28.343,12.0789447 25.696,11.2779447 24.559,11.0819447 C24.291,11.0359447 24.109,10.7849447 24.149,10.5159447 C24.052,9.08494474 23.366,8.01394474 22.317,7.70794474 C21.46,7.45694474 20.534,7.78994474 19.967,8.55794474 C19.855,8.70594474 19.678,8.77894474 19.49,8.75494474 C19.308,8.72794474 19.154,8.60094474 19.093,8.42694474 C18.7,7.31394474 18.13,6.37794474 17.398,5.64394474 C16.502,4.74494474 14.041,2.81294474 10.567,4.28094474 C9.049,4.92494474 7.731,6.51594474 7.212,8.33494474 L7.212,8.33494474 Z" id="Fill-4"></path>
        </g>
    </g>
</svg>