<?xml version="1.0" encoding="UTF-8"?>
<svg width="40px" height="40px" viewBox="0 0 40 40" version="1.1" xmlns="http://www.w3.org/2000/svg" xmlns:xlink="http://www.w3.org/1999/xlink">
    <title>Icon-Architecture/32/Arch_AWS-Cloud-Control-API_32</title>
    <defs>
        <linearGradient x1="0%" y1="100%" x2="100%" y2="0%" id="linearGradient-1">
            <stop stop-color="#2E27AD" offset="0%"></stop>
            <stop stop-color="#527FFF" offset="100%"></stop>
        </linearGradient>
    </defs>
    <g id="Icon-Architecture/32/Arch_AWS-Cloud-Control-API_32" stroke="none" stroke-width="1" fill="none" fill-rule="evenodd">
        <g id="Rectangle" fill="url(#linearGradient-1)">
            <rect x="0" y="0" width="40" height="40"></rect>
        </g>
        <g id="Icon-Service/32/AWS-Cloud-Control-API_32" transform="translate(4.000000, 4.000000)" fill="#FFFFFF">
            <path d="M3.05653567,20.1333999 C2.86953567,19.0973999 3.13653567,18.0843999 3.80953567,17.2793999 C4.49753567,16.4563999 5.50653567,15.9833999 6.57753567,15.9833999 L18.6865357,15.9833999 L16.3185357,18.3513999 L17.0255357,19.0583999 L20.2465357,15.8373999 C20.4425357,15.6413999 20.4425357,15.3253999 20.2465357,15.1303999 L17.0255357,11.9083999 L16.3185357,12.6153999 L18.6865357,14.9833999 L6.57753567,14.9833999 C5.20853567,14.9833999 3.92053567,15.5863999 3.04153567,16.6383999 C2.18853567,17.6593999 1.83453567,18.9983999 2.07253567,20.3113999 C2.45053567,22.4043999 4.44153567,23.9833999 6.70253567,23.9833999 L7.96453567,23.9833999 L7.96453567,22.9833999 L6.70253567,22.9833999 C4.91653567,22.9833999 3.34953567,21.7583999 3.05653567,20.1333999 M29.9965357,18.6103999 C29.9965357,23.5583999 25.0235357,23.9783999 24.9725357,23.9823999 L11.3975357,23.9833999 L13.8035357,26.3903999 L13.0965357,27.0973999 L9.83653567,23.8373999 C9.64153567,23.6413999 9.64153567,23.3253999 9.83653567,23.1303999 L13.0965357,19.8693999 L13.8035357,20.5763999 L11.3975357,22.9833999 L24.9365357,22.9833999 C25.0665357,22.9713999 28.9965357,22.6203999 28.9965357,18.6103999 C28.9965357,17.8773999 28.8605357,17.2173999 28.5895357,16.6483999 C28.2425357,15.9163999 27.6695357,15.3193999 26.8905357,14.8753999 C26.6025357,14.7103999 26.2865357,14.5683999 25.9525357,14.4513999 C25.6305357,14.3393999 25.2985357,14.2533999 24.9655357,14.1953999 C24.6995357,14.1493999 24.5175357,13.8993999 24.5555357,13.6323999 C24.5585357,13.2523999 24.5155357,12.8823999 24.4305357,12.5493999 C24.1635357,11.5033999 23.4795357,10.8003999 22.5535357,10.6193999 C21.6575357,10.4443999 20.7185357,10.8163999 20.1645357,11.5673999 C20.0555357,11.7163999 19.8775357,11.7883999 19.6885357,11.7653999 C19.5055357,11.7383999 19.3525357,11.6123999 19.2905357,11.4373999 C18.8795357,10.2713999 18.2855357,9.29039988 17.5215357,8.52339988 C16.5845357,7.58039988 14.0115357,5.55639988 10.3865357,7.09539988 C8.27853567,7.99039988 6.49653567,10.7163999 6.49653567,13.0483999 L5.49653567,13.0483999 C5.49653567,10.3113999 7.51553567,7.22839988 9.99553567,6.17539988 C12.9015357,4.94239988 15.9805357,5.55439988 18.2305357,7.81839988 C18.9295357,8.52039988 19.5025357,9.37439988 19.9405357,10.3623999 C20.7165357,9.72239988 21.7475357,9.44539988 22.7445357,9.63739988 C24.0455357,9.89139988 25.0385357,10.8873999 25.3995357,12.3013999 C25.4785357,12.6123999 25.5285357,12.9453999 25.5485357,13.2943999 C25.7955357,13.3523999 26.0415357,13.4233999 26.2825357,13.5073999 C26.6735357,13.6433999 27.0445357,13.8113999 27.3865357,14.0063999 C28.3465357,14.5533999 29.0555357,15.2983999 29.4935357,16.2193999 C29.8275357,16.9233999 29.9965357,17.7273999 29.9965357,18.6103999" id="Fill-6"></path>
        </g>
    </g>
</svg>