<?xml version="1.0" encoding="UTF-8"?>
<svg width="24px" height="24px" viewBox="0 0 24 24" version="1.1" xmlns="http://www.w3.org/2000/svg" xmlns:xlink="http://www.w3.org/1999/xlink">
    <title>Icon-Architecture/16/Arch_AWS-IoT-ExpressLink_16</title>
    <defs>
        <linearGradient x1="0%" y1="100%" x2="100%" y2="0%" id="linearGradient-1">
            <stop stop-color="#1B660F" offset="0%"></stop>
            <stop stop-color="#6CAE3E" offset="100%"></stop>
        </linearGradient>
    </defs>
    <g id="Icon-Architecture/16/Arch_AWS-IoT-ExpressLink_16" stroke="none" stroke-width="1" fill="none" fill-rule="evenodd">
        <g id="Rectangle" fill="url(#linearGradient-1)">
            <rect x="0" y="0" width="24" height="24"></rect>
        </g>
        <g id="Icon-Service/16/AWS-IoT-ExpressLink_16" transform="translate(4.000000, 4.000000)" fill="#FFFFFF">
            <path d="M11.055,6.4794173 C11.055,6.2034173 10.831,5.9794173 10.555,5.9794173 L10.055,5.9794173 L10.055,4.9794173 L9.055,4.9794173 L9.055,5.9794173 L8.055,5.9794173 L8.055,4.9794173 L7.055,4.9794173 L7.055,5.9794173 L6.055,5.9794173 L6.055,4.9794173 L5.055,4.9794173 L5.055,5.9794173 L4.555,5.9794173 C4.279,5.9794173 4.055,6.2034173 4.055,6.4794173 L4.055,6.9794173 L3.055,6.9794173 L3.055,7.9794173 L4.055,7.9794173 L4.055,8.9794173 L3.055,8.9794173 L3.055,9.9794173 L4.055,9.9794173 L4.055,10.9794173 L3.055,10.9794173 L3.055,11.9794173 L4.055,11.9794173 L4.055,12.4794173 C4.055,12.7554173 4.279,12.9794173 4.555,12.9794173 L5.994,12.9794173 L5.994,11.9794173 L5.055,11.9794173 L5.055,6.9794173 L10.055,6.9794173 L10.055,11.9794173 L9.019,11.9794173 L9.019,12.9794173 L10.555,12.9794173 C10.831,12.9794173 11.055,12.7554173 11.055,12.4794173 L11.055,11.9794173 L12.055,11.9794173 L12.055,10.9794173 L11.055,10.9794173 L11.055,9.9794173 L12.055,9.9794173 L12.055,8.9794173 L11.055,8.9794173 L11.055,7.9794173 L12.055,7.9794173 L12.055,6.9794173 L11.055,6.9794173 L11.055,6.4794173 Z M9.055,15.9794173 L10.055,15.9794173 L10.055,13.9794173 L9.055,13.9794173 L9.055,15.9794173 Z M7.055,14.9794173 L8.055,14.9794173 L8.055,10.9794173 L7.055,10.9794173 L7.055,14.9794173 Z M5.055,15.9794173 L6.055,15.9794173 L6.055,13.9794173 L5.055,13.9794173 L5.055,15.9794173 Z M16.014,7.0274173 C16.014,9.3454173 14.29,9.8344173 13.763,9.9304173 L13.585,8.9454173 C14.119,8.8504173 15.014,8.4734173 15.014,7.0274173 C15.014,6.6064173 14.895,6.0514173 13.964,5.4804173 C13.461,5.1714173 12.988,5.0694173 12.808,5.0404173 C12.676,5.0184173 12.559,4.9454173 12.482,4.8364173 C12.405,4.7284173 12.373,4.5934173 12.396,4.4614173 C12.345,3.8464173 12.029,3.3544173 11.527,3.2024173 C11.112,3.0764173 10.659,3.2244173 10.38,3.5834173 C10.269,3.7274173 10.081,3.7984173 9.909,3.7714173 C9.73,3.7444173 9.579,3.6214173 9.516,3.4514173 C9.303,2.8774173 8.995,2.3954173 8.603,2.0194173 C8.119,1.5574173 6.789,0.562417298 4.914,1.3204173 C3.844,1.7514173 3.005,2.9944173 3.005,4.1474173 C3.005,4.2764173 3.013,4.4044173 3.029,4.5304173 C3.061,4.7824173 2.898,5.0194173 2.651,5.0794173 C2.034,5.2294173 1,5.6884173 1,7.0874173 C1,8.0764173 1.478,8.4774173 1.838,8.6934173 L1.323,9.5504173 C0.446,9.0234173 -5.15143483e-14,8.1944173 -5.15143483e-14,7.0874173 C-5.15143483e-14,5.7294173 0.742,4.6874173 2.006,4.2294173 C2.005,4.2024173 2.005,4.1744173 2.005,4.1474173 C2.005,2.5904173 3.095,0.976417298 4.539,0.392417298 C6.217,-0.283582702 7.994,0.0534172982 9.294,1.2964173 C9.638,1.6254173 9.929,2.0144173 10.163,2.4554173 C10.652,2.1564173 11.247,2.0714173 11.817,2.2454173 C12.628,2.4904173 13.185,3.1864173 13.351,4.1374173 C13.742,4.2444173 14.141,4.4164173 14.488,4.6284173 C15.515,5.2584173 16.014,6.0424173 16.014,7.0274173 L16.014,7.0274173 Z" id="Fill-1"></path>
        </g>
    </g>
</svg>