<?xml version="1.0" encoding="UTF-8"?>
<svg width="24px" height="24px" viewBox="0 0 24 24" version="1.1" xmlns="http://www.w3.org/2000/svg" xmlns:xlink="http://www.w3.org/1999/xlink">
    <title>Icon-Architecture/16/Arch_AWS-Outposts_16</title>
    <defs>
        <linearGradient x1="0%" y1="100%" x2="100%" y2="0%" id="linearGradient-1">
            <stop stop-color="#C8511B" offset="0%"></stop>
            <stop stop-color="#FF9900" offset="100%"></stop>
        </linearGradient>
    </defs>
    <g id="Icon-Architecture/16/Arch_AWS-Outposts_16" stroke="none" stroke-width="1" fill="none" fill-rule="evenodd">
        <g id="Rectangle" fill="url(#linearGradient-1)">
            <rect x="0" y="0" width="24" height="24"></rect>
        </g>
        <g id="Icon-Service/16/AWS-Outposts_16" transform="translate(4.000000, 4.000000)" fill="#FFFFFF">
            <path d="M10,15.0077062 L10,9.00770621 L5,9.00770621 L5,10.0077062 L5,11.0077062 L5,15.0077062 L6,15.0077062 L6,12.5077062 C6,12.2317062 6.224,12.0077062 6.5,12.0077062 L8.5,12.0077062 C8.776,12.0077062 9,12.2317062 9,12.5077062 L9,15.0077062 L10,15.0077062 Z M7,15.0077062 L8,15.0077062 L8,13.0077062 L7,13.0077062 L7,15.0077062 Z M16,15.0077062 L16,16.0077062 L11,16.0077062 L10,16.0077062 L9,16.0077062 L8,16.0077062 L7,16.0077062 L6,16.0077062 L5,16.0077062 L4,16.0077062 L0,16.0077062 L0,15.0077062 L4,15.0077062 L4,11.0077062 L2.9,11.0077062 C1.919,11.0077062 1.042,10.5687062 0.557,9.83270621 C0.301,9.44470621 0.143,9.01670621 0.087,8.55870621 C0.068,8.40970621 0.059,8.25370621 0.059,8.09070621 C0.059,6.54270621 0.876,5.60770621 1.799,5.15370621 L0.656,4.73670621 L1,3.79770621 L3.126,4.57370621 C3.385,4.66870621 3.519,4.95570621 3.424,5.21470621 L2.647,7.34070621 L1.708,6.99870621 L2.008,6.17570621 C1.554,6.47170621 1.059,7.03570621 1.059,8.09070621 C1.059,8.21170621 1.066,8.32770621 1.079,8.43770621 C1.116,8.73970621 1.222,9.02470621 1.391,9.28170621 C1.687,9.72970621 2.266,10.0077062 2.9,10.0077062 L4,10.0077062 L4,8.50770621 C4,8.23170621 4.224,8.00770621 4.5,8.00770621 L10.5,8.00770621 C10.776,8.00770621 11,8.23170621 11,8.50770621 L11,15.0077062 L16,15.0077062 Z M3.168,4.08270621 L2.207,3.80870621 C2.57,2.53670621 3.472,1.46070621 4.561,0.999706214 C6.232,0.290706214 8.006,0.642706214 9.302,1.94170621 C9.642,2.28270621 9.929,2.68370621 10.16,3.13970621 C10.634,2.84270621 11.207,2.75270621 11.76,2.91470621 C12.592,3.15770621 13.161,3.88670621 13.325,4.89570621 C14.557,5.23070621 15.746,6.18070621 15.746,7.97370621 C15.746,9.58670621 14.67,10.4627062 13.732,10.9287062 L14.61,11.3477062 L14.179,12.2497062 L12.136,11.2747062 C12.017,11.2177062 11.925,11.1157062 11.88,10.9897062 C11.836,10.8647062 11.843,10.7277062 11.9,10.6087062 L12.876,8.56570621 L13.778,8.99670621 L13.277,10.0467062 C13.992,9.69770621 14.746,9.07470621 14.746,7.97370621 C14.746,6.31470621 13.368,5.89870621 12.775,5.79670621 C12.505,5.75070621 12.322,5.49370621 12.367,5.22270621 C12.315,4.55770621 11.984,4.02270621 11.479,3.87470621 C11.079,3.75670621 10.646,3.91770621 10.379,4.27870621 C10.27,4.42670621 10.089,4.49970621 9.902,4.47570621 C9.72,4.44870621 9.566,4.32170621 9.505,4.14770621 C9.293,3.54770621 8.986,3.04270621 8.593,2.64770621 C8.114,2.16770621 6.803,1.13470621 4.951,1.92070621 C4.146,2.26070621 3.446,3.11070621 3.168,4.08270621 L3.168,4.08270621 Z" id="Fill-5"></path>
        </g>
    </g>
</svg>