<?xml version="1.0" encoding="UTF-8"?>
<svg width="40px" height="40px" viewBox="0 0 40 40" version="1.1" xmlns="http://www.w3.org/2000/svg" xmlns:xlink="http://www.w3.org/1999/xlink">
    <title>Icon-Architecture/32/Arch_AWS-Private-5G_32</title>
    <defs>
        <linearGradient x1="0%" y1="100%" x2="100%" y2="0%" id="linearGradient-1">
            <stop stop-color="#4D27A8" offset="0%"></stop>
            <stop stop-color="#A166FF" offset="100%"></stop>
        </linearGradient>
    </defs>
    <g id="Icon-Architecture/32/Arch_AWS-Private-5G_32" stroke="none" stroke-width="1" fill="none" fill-rule="evenodd">
        <g id="Rectangle" fill="url(#linearGradient-1)">
            <rect x="0" y="0" width="40" height="40"></rect>
        </g>
        <g id="Icon-Service/32/AWS-Private-5G_32" transform="translate(4.000000, 4.000000)" fill="#FFFFFF">
            <path d="M11.244,5.811 L6.766,2.408 L7.372,1.612 L11.849,5.015 L11.244,5.811 Z M20.188,5.799 L19.583,5.003 L24.06,1.6 L24.666,2.396 L20.188,5.799 Z M24.06,13.471 L19.583,10.067 L20.188,9.271 L24.666,12.675 L24.06,13.471 Z M21,7.985 L28,7.985 L28,6.985 L21,6.985 L21,7.985 Z M11.244,9.284 L11.849,10.08 L7.372,13.483 L6.766,12.687 L11.244,9.284 Z M4,7.985 L11,7.985 L11,6.985 L4,6.985 L4,7.985 Z M20,28.791 L20,19.985 L12,19.985 L12,28.777 C7.627,28.498 4.915,27.81 4.502,27.379 C4.702,21.264 9.68,16.485 15.868,16.485 C21.807,16.485 26.883,21.449 27.223,27.568 C26.794,27.999 24.167,28.559 20,28.791 L20,28.791 Z M19,28.839 C18.055,28.877 17.047,28.9 15.971,28.9 C14.915,28.9 13.929,28.874 13,28.831 L13,20.985 L19,20.985 L19,28.839 Z M14,8.354 C14,7.251 14.897,6.354 16,6.354 C17.102,6.354 18,7.251 18,8.354 C18,9.457 17.102,10.354 16,10.354 C14.897,10.354 14,9.457 14,8.354 L14,8.354 Z M16.5,15.518 L16.5,11.303 C17.916,11.064 19,9.837 19,8.354 C19,6.7 17.654,5.354 16,5.354 C14.346,5.354 13,6.7 13,8.354 C13,9.837 14.084,11.064 15.5,11.303 L15.5,15.503 C8.911,15.691 3.67,20.857 3.5,27.447 C3.5,29.459 12.502,29.9 15.971,29.9 C18.017,29.9 28.227,29.791 28.227,27.634 L28.226,27.61 C27.917,21.144 22.717,15.859 16.5,15.518 L16.5,15.518 Z" id="Fill-5"></path>
        </g>
    </g>
</svg>