<?xml version="1.0" encoding="UTF-8"?>
<svg width="40px" height="40px" viewBox="0 0 40 40" version="1.1" xmlns="http://www.w3.org/2000/svg" xmlns:xlink="http://www.w3.org/1999/xlink">
    <title>Icon-Architecture/32/Arch_CN-CloudWAN_32</title>
    <defs>
        <linearGradient x1="0%" y1="100%" x2="100%" y2="0%" id="linearGradient-1">
            <stop stop-color="#4D27A8" offset="0%"></stop>
            <stop stop-color="#A166FF" offset="100%"></stop>
        </linearGradient>
    </defs>
    <g id="Icon-Architecture/32/Arch_CN-CloudWAN_32" stroke="none" stroke-width="1" fill="none" fill-rule="evenodd">
        <g id="Rectangle" fill="url(#linearGradient-1)">
            <rect x="0" y="0" width="40" height="40"></rect>
        </g>
        <g id="Icon-Service/32/CN-CloudWAN_32" transform="translate(4.000000, 4.000000)" fill="#FFFFFF">
            <path d="M22.305,11.863 C21.649,12.209 20.884,12.493 20.046,12.711 C20.225,13.574 20.331,14.513 20.359,15.5 L22.55,15.5 L23.522,15.5 C23.48,14.866 23.356,14.255 23.167,13.673 C22.959,13.028 22.671,12.419 22.305,11.863 L22.305,11.863 Z M22.4,19.981 C22.72,19.469 22.98,18.916 23.17,18.332 C23.36,17.749 23.48,17.136 23.522,16.5 L22.55,16.5 L20.359,16.5 C20.333,17.415 20.238,18.285 20.082,19.094 C20.946,19.321 21.733,19.618 22.4,19.981 L22.4,19.981 Z M21.815,20.806 C21.247,20.508 20.587,20.26 19.861,20.067 C19.523,21.313 19.032,22.366 18.434,23.138 C19.767,22.682 20.935,21.869 21.815,20.806 L21.815,20.806 Z M16,25 C14.897,25 14,25.897 14,27 C14,28.103 14.897,29 16,29 C17.102,29 18,28.103 18,27 C18,25.897 17.102,25 16,25 L16,25 Z M13.565,23.138 C12.967,22.366 12.476,21.313 12.138,20.067 C11.412,20.26 10.752,20.508 10.183,20.805 C11.063,21.869 12.232,22.682 13.565,23.138 L13.565,23.138 Z M11.917,19.094 C11.761,18.285 11.666,17.414 11.64,16.5 L9.449,16.5 L8.477,16.5 C8.519,17.136 8.639,17.749 8.829,18.332 C9.019,18.916 9.279,19.468 9.598,19.98 C10.266,19.617 11.054,19.321 11.917,19.094 L11.917,19.094 Z M9.694,11.863 C9.328,12.419 9.04,13.028 8.832,13.673 C8.644,14.255 8.519,14.866 8.477,15.5 L9.449,15.5 L11.64,15.5 C11.668,14.513 11.774,13.574 11.953,12.711 C11.115,12.493 10.351,12.209 9.694,11.863 L9.694,11.863 Z M10.312,11.054 C10.866,11.331 11.5,11.562 12.194,11.743 C12.529,10.581 12.998,9.595 13.564,8.864 C12.293,9.299 11.176,10.062 10.312,11.054 L10.312,11.054 Z M16,7 C17.102,7 18,6.103 18,5 C18,3.897 17.102,3 16,3 C14.897,3 14,3.897 14,5 C14,6.103 14.897,7 16,7 L16,7 Z M16,12.208 C16.984,12.208 17.939,12.118 18.831,11.956 C18.482,10.766 17.989,9.845 17.441,9.242 C16.985,8.741 16.493,8.456 16.007,8.453 C16.005,8.453 16.002,8.453 16,8.453 C15.997,8.453 15.994,8.453 15.992,8.453 C15.507,8.456 15.014,8.741 14.558,9.242 C14.011,9.845 13.518,10.766 13.168,11.956 C14.06,12.118 15.015,12.208 16,12.208 L16,12.208 Z M19.36,15.5 C19.332,14.57 19.235,13.704 19.076,12.926 C18.104,13.107 17.065,13.208 16,13.208 C14.934,13.208 13.895,13.107 12.924,12.926 C12.764,13.704 12.667,14.57 12.639,15.5 L19.36,15.5 Z M15.999,19.588 C14.993,19.588 14.018,19.682 13.111,19.85 C13.463,21.135 13.98,22.123 14.558,22.759 C15.016,23.262 15.512,23.548 16,23.548 C16.487,23.548 16.983,23.262 17.441,22.759 C18.019,22.123 18.536,21.135 18.888,19.85 C17.98,19.682 17.005,19.588 15.999,19.588 L15.999,19.588 Z M19.111,18.877 C19.248,18.15 19.335,17.354 19.36,16.5 L12.639,16.5 C12.664,17.354 12.751,18.15 12.888,18.876 C13.87,18.691 14.92,18.588 15.999,18.588 C17.078,18.588 18.129,18.691 19.111,18.877 L19.111,18.877 Z M18.435,8.864 C19.002,9.595 19.47,10.581 19.805,11.743 C20.499,11.562 21.133,11.331 21.687,11.054 C20.823,10.062 19.706,9.299 18.435,8.864 L18.435,8.864 Z M25,16 C25,17.103 25.897,18 27,18 C28.102,18 29,17.103 29,16 C29,14.897 28.102,14 27,14 C25.897,14 25,14.897 25,16 L25,16 Z M7,16 C7,14.897 6.102,14 5,14 C3.897,14 3,14.897 3,16 C3,17.103 3.897,18 5,18 C6.102,18 7,17.103 7,16 L7,16 Z M23.879,12.77 C24.108,13.328 24.302,13.905 24.409,14.514 C24.928,13.614 25.888,13 27,13 C28.654,13 30,14.346 30,16 C30,17.655 28.654,19 27,19 C25.888,19 24.928,18.386 24.409,17.486 C24.302,18.096 24.108,18.672 23.879,19.23 C23.012,21.337 21.337,23.013 19.23,23.88 C18.672,24.109 18.095,24.303 17.486,24.41 C18.386,24.929 19,25.889 19,27 C19,28.655 17.654,30 16,30 C14.345,30 13,28.655 13,27 C13,25.889 13.614,24.928 14.513,24.41 C13.904,24.303 13.327,24.109 12.77,23.88 C10.662,23.013 8.987,21.338 8.12,19.23 C7.891,18.672 7.697,18.096 7.59,17.486 C7.071,18.386 6.111,19 5,19 C3.345,19 2,17.655 2,16 C2,14.346 3.345,13 5,13 C6.111,13 7.071,13.614 7.59,14.514 C7.697,13.905 7.891,13.328 8.12,12.77 C8.987,10.663 10.663,8.988 12.77,8.121 C13.328,7.892 13.904,7.699 14.514,7.591 C13.614,7.073 13,6.112 13,5 C13,3.346 14.345,2 16,2 C17.654,2 19,3.346 19,5 C19,6.112 18.385,7.073 17.485,7.591 C18.095,7.698 18.671,7.892 19.229,8.121 C21.336,8.988 23.012,10.663 23.879,12.77 L23.879,12.77 Z M20.29,25.715 C20.389,26.045 20.453,26.387 20.474,26.744 C23.297,25.563 25.562,23.297 26.743,20.474 C26.387,20.454 26.045,20.39 25.715,20.291 C24.643,22.705 22.704,24.644 20.29,25.715 L20.29,25.715 Z M6.284,20.291 C5.955,20.39 5.613,20.454 5.256,20.474 C6.437,23.297 8.702,25.563 11.525,26.744 C11.546,26.387 11.61,26.045 11.709,25.715 C9.295,24.644 7.356,22.705 6.284,20.291 L6.284,20.291 Z M11.709,6.285 C11.61,5.956 11.546,5.614 11.525,5.257 C8.702,6.438 6.437,8.703 5.256,11.526 C5.613,11.547 5.955,11.611 6.284,11.71 C7.356,9.296 9.295,7.357 11.709,6.285 L11.709,6.285 Z M20.29,6.285 C20.389,5.956 20.453,5.614 20.474,5.257 C23.297,6.438 25.562,8.703 26.743,11.526 C26.387,11.547 26.045,11.611 25.715,11.71 C24.643,9.296 22.704,7.357 20.29,6.285 L20.29,6.285 Z" id="Fill-6"></path>
        </g>
    </g>
</svg>