<?xml version="1.0" encoding="UTF-8"?>
<svg width="40px" height="40px" viewBox="0 0 40 40" version="1.1" xmlns="http://www.w3.org/2000/svg" xmlns:xlink="http://www.w3.org/1999/xlink">
    <title>Icon-Architecture/32/Arch_AWS-Resilience-Hub_32</title>
    <defs>
        <linearGradient x1="0%" y1="100%" x2="100%" y2="0%" id="linearGradient-1">
            <stop stop-color="#B0084D" offset="0%"></stop>
            <stop stop-color="#FF4F8B" offset="100%"></stop>
        </linearGradient>
    </defs>
    <g id="Icon-Architecture/32/Arch_AWS-Resilience-Hub_32" stroke="none" stroke-width="1" fill="none" fill-rule="evenodd">
        <g id="Rectangle" fill="url(#linearGradient-1)">
            <rect x="0" y="0" width="40" height="40"></rect>
        </g>
        <g id="Icon-Service/32/AWS-Resilience-Hub_32" transform="translate(4.000000, 4.000000)" fill="#FFFFFF">
            <path d="M26.222,10.9836935 C26.242,9.45669346 25.366,8.14469346 23.912,7.57669346 C22.687,7.09669346 21.364,7.27469346 20.439,7.98369346 C19.989,6.95369346 19.395,6.06369346 18.669,5.33269346 C16.361,3.00669346 13.201,2.37369346 10.217,3.64369346 C7.672,4.72669346 5.753,7.71469346 5.753,10.5956935 C5.753,10.7686935 5.759,10.9406935 5.77,11.1096935 C4.381,11.5676935 2,12.8676935 2,16.3966935 C2,16.5846935 2.008,16.7666935 2.022,16.9426935 C2.271,20.1506935 3.929,21.9916935 6.571,21.9946935 L9.069,21.9946935 L9.069,20.9946935 L6.572,20.9946935 C3.759,20.9916935 3.138,18.4056935 3.018,16.8656935 C3.006,16.7136935 3,16.5576935 3,16.3966935 C3,13.3006935 5.149,12.2876935 6.429,11.9596935 C6.672,11.8976935 6.831,11.6656935 6.801,11.4166935 C6.77,11.1476935 6.753,10.8736935 6.753,10.5956935 C6.753,8.13269346 8.447,5.48369346 10.608,4.56369346 C14.347,2.97569346 16.994,5.06469346 17.96,6.03669346 C18.746,6.82969346 19.359,7.84069346 19.783,9.04569346 C19.844,9.21969346 19.997,9.34669346 20.181,9.37369346 C20.362,9.39669346 20.547,9.32469346 20.657,9.17569346 C21.364,8.21469346 22.651,8.15769346 23.548,8.50769346 C24.458,8.86369346 25.371,9.77669346 25.198,11.3066935 C25.156,11.5766935 25.337,11.8306935 25.607,11.8766935 C26.844,12.0906935 29.719,12.9626935 29.689,16.4356935 C29.677,17.8846935 29.125,18.7806935 28.664,19.2766935 L29.397,19.9576935 C29.979,19.3316935 30.675,18.2126935 30.6892675,16.4436935 C30.722,12.5436935 27.693,11.3376935 26.222,10.9836935 L26.222,10.9836935 Z M21.576,23.4946935 L21.576,24.4946935 L24.705,24.4946935 C23.613,26.6626935 21.381,28.0776935 18.909,28.0776935 C15.325,28.0776935 12.409,25.1616935 12.409,21.5776935 C12.409,17.9936935 15.325,15.0776935 18.909,15.0776935 C22.265,15.0776935 25.111,17.6946935 25.387,21.0356935 L26.383,20.9536935 C26.065,17.0976935 22.782,14.0776935 18.909,14.0776935 C14.773,14.0776935 11.409,17.4416935 11.409,21.5776935 C11.409,25.7136935 14.773,29.0776935 18.909,29.0776935 C21.744,29.0776935 24.306,27.4666935 25.576,24.9906935 L25.576,28.4946935 L26.576,28.4946935 L26.576,23.4946935 L21.576,23.4946935 Z M17.45,23.8636935 L22.041,18.9046935 L22.776,19.5846935 L17.847,24.9066935 C17.748,25.0126935 17.615,25.0666935 17.48,25.0666935 C17.36,25.0666935 17.24,25.0236935 17.144,24.9376935 L14.49,22.5316935 L15.161,21.7906935 L17.45,23.8636935 Z" id="Icon-Service/32/AWS-Resilience-Hub_32_Squid"></path>
        </g>
    </g>
</svg>