<?xml version="1.0" encoding="UTF-8"?>
<svg width="40px" height="40px" viewBox="0 0 40 40" version="1.1" xmlns="http://www.w3.org/2000/svg" xmlns:xlink="http://www.w3.org/1999/xlink">
    <title>Icon-Architecture/32/Arch_Amazon-GameLift_32</title>
    <defs>
        <linearGradient x1="0%" y1="100%" x2="100%" y2="0%" id="linearGradient-1">
            <stop stop-color="#4D27A8" offset="0%"></stop>
            <stop stop-color="#A166FF" offset="100%"></stop>
        </linearGradient>
    </defs>
    <g id="Icon-Architecture/32/Arch_Amazon-GameLift_32" stroke="none" stroke-width="1" fill="none" fill-rule="evenodd">
        <g id="Rectangle" fill="url(#linearGradient-1)">
            <rect x="0" y="0" width="40" height="40"></rect>
        </g>
        <g id="Icon-Service/32/Amazon-GameLift_32" transform="translate(4.000000, 4.000000)" fill="#FFFFFF">
            <path d="M25.752,21.498 C25.752,21.084 26.088,20.748 26.502,20.748 C26.916,20.748 27.252,21.084 27.252,21.498 C27.252,21.912 26.916,22.248 26.502,22.248 C26.088,22.248 25.752,21.912 25.752,21.498 L25.752,21.498 Z M28.683,28.716 C28.496,28.907 28.227,29 27.861,29 C26.879,29 25.72,26.23 25.097,24.741 C25.089,24.723 25.083,24.707 25.075,24.689 C25.511,24.885 25.992,25 26.5,25 C27.48,25 28.364,24.592 29.000012,23.941 L29.000012,27.841 C29.000012,27.846 29.007,28.385 28.683,28.716 L28.683,28.716 Z M16.14,29 C15.774,29 15.504,28.907 15.318,28.716 C14.993,28.385 14.9999881,27.846 14.9999881,27.827 L14.9999881,23.941 C15.636,24.592 16.521,25 17.5,25 C18.009,25 18.489,24.885 18.926,24.689 C18.918,24.707 18.911,24.723 18.904,24.741 C18.281,26.23 17.121,29 16.14,29 L16.14,29 Z M17.5,19 C18.879,19 20,20.121 20,21.5 C20,22.878 18.879,24 17.5,24 C16.121,24 15,22.878 15,21.5 C15,20.121 16.121,19 17.5,19 L17.5,19 Z M23.351,23 L20.649,23 C20.868,22.543 21,22.039 21,21.5 C21,20.961 20.868,20.456 20.649,20 L23.351,20 C23.133,20.456 23,20.961 23,21.5 C23,22.039 23.133,22.543 23.351,23 L23.351,23 Z M26.5,19 C27.879,19 29,20.121 29,21.5 C29,22.878 27.879,24 26.5,24 C25.121,24 24,22.878 24,21.5 C24,20.121 25.121,19 26.5,19 L26.5,19 Z M30,27.827 L30,21.5 C30,19.57 28.43,18 26.5,18 C25.55,18 24.69,18.383 24.059,19 L19.942,19 C19.311,18.383 18.45,18 17.5,18 C15.571,18 14,19.57 14,21.5 L14,27.81 C13.997,27.907 13.986,28.777 14.594,29.406 C14.975,29.8 15.494,30 16.14,30 C17.787,30 18.918,27.298 19.826,25.128 C20.004,24.702 20.166,24.314 20.313,24 L23.688,24 C23.834,24.314 23.996,24.702 24.174,25.128 C25.082,27.298 26.213,30 27.861,30 C28.506,30 29.026,29.8 29.407,29.406 C30.015,28.777 30.003,27.907 30,27.827 L30,27.827 Z M17,22 L16,22 L16,21 L17,21 L17,20 L18,20 L18,21 L19,21 L19,22 L18,22 L18,23 L17,23 L17,22 Z M5.723,20.369 C6.484,19.966 7.356,19.632 8.312,19.371 C8.839,21.031 9.579,22.401 10.469,23.343 C8.62,22.801 6.99,21.756 5.723,20.369 L5.723,20.369 Z M5.075,19.585 C3.873,17.978 3.128,16.016 3.026,13.883 L7.454,13.883 C7.49,15.513 7.695,17.041 8.039,18.411 C6.94,18.712 5.939,19.106 5.075,19.585 L5.075,19.585 Z M5.075,7.182 C5.939,7.661 6.939,8.055 8.039,8.356 C7.695,9.726 7.49,11.254 7.454,12.883 L3.026,12.883 C3.128,10.751 3.872,8.789 5.075,7.182 L5.075,7.182 Z M10.469,3.424 C9.578,4.366 8.839,5.736 8.311,7.396 C7.356,7.136 6.483,6.803 5.722,6.4 C6.988,5.012 8.62,3.966 10.469,3.424 L10.469,3.424 Z M13.384,3 C15.06,3 16.573,4.861 17.471,7.632 C16.195,7.898 14.815,8.046 13.384,8.046 C11.951,8.046 10.571,7.898 9.297,7.633 C10.195,4.861 11.708,3 13.384,3 L13.384,3 Z M21.044,6.398 C20.284,6.801 19.411,7.135 18.456,7.396 C17.929,5.736 17.189,4.366 16.299,3.424 C18.148,3.966 19.778,5.011 21.044,6.398 L21.044,6.398 Z M21.693,7.182 C22.896,8.789 23.64,10.751 23.742,12.883 L19.313,12.883 C19.277,11.254 19.072,9.725 18.728,8.355 C19.828,8.054 20.829,7.66 21.693,7.182 L21.693,7.182 Z M8.454,12.883 C8.491,11.352 8.69,9.896 9.022,8.594 C10.385,8.884 11.859,9.046 13.384,9.046 C14.907,9.046 16.381,8.884 17.745,8.594 C18.077,9.895 18.276,11.352 18.313,12.883 L8.454,12.883 Z M13,23.714 C11.48,23.454 10.126,21.692 9.297,19.135 C10.572,18.869 11.953,18.72 13.384,18.72 C13.418,18.72 13.45,18.725 13.483,18.725 L13.483,17.723 C13.45,17.723 13.417,17.72 13.384,17.72 C11.861,17.72 10.387,17.882 9.022,18.173 C8.69,16.871 8.491,15.415 8.454,13.883 L18.313,13.883 C18.287,14.97 18.175,16.017 17.996,17 L19.016,17 C19.183,16.016 19.289,14.975 19.313,13.883 L23.742,13.883 C23.69,14.976 23.467,16.022 23.102,17 L24.169,17 C24.552,15.862 24.768,14.649 24.768,13.383 C24.768,7.107 19.661,2 13.384,2 C7.107,2 2,7.107 2,13.383 C2,19.531 6.901,24.543 13,24.748 L13,23.714 Z" id="Fill-3"></path>
        </g>
    </g>
</svg>