<?xml version="1.0" encoding="UTF-8"?>
<svg width="40px" height="40px" viewBox="0 0 40 40" version="1.1" xmlns="http://www.w3.org/2000/svg" xmlns:xlink="http://www.w3.org/1999/xlink">
    <title>Icon-Architecture/32/Arch_Amazon-GameSparks_32</title>
    <defs>
        <linearGradient x1="0%" y1="100%" x2="100%" y2="0%" id="linearGradient-1">
            <stop stop-color="#4D27A8" offset="0%"></stop>
            <stop stop-color="#A166FF" offset="100%"></stop>
        </linearGradient>
    </defs>
    <g id="Icon-Architecture/32/Arch_Amazon-GameSparks_32" stroke="none" stroke-width="1" fill="none" fill-rule="evenodd">
        <g id="Rectangle" fill="url(#linearGradient-1)">
            <rect x="0" y="0" width="40" height="40"></rect>
        </g>
        <g id="Icon-Service/32/Amazon-GameSparks_32" transform="translate(4.000000, 4.000000)" fill="#FFFFFF">
            <path d="M25.756,21.498 C25.756,21.084 26.092,20.748 26.506,20.748 C26.92,20.748 27.256,21.084 27.256,21.498 C27.256,21.912 26.92,22.248 26.506,22.248 C26.092,22.248 25.756,21.912 25.756,21.498 L25.756,21.498 Z M28.687,28.716 C28.5,28.907 28.231,29 27.865,29 C26.883,29 25.724,26.23 25.101,24.741 C25.093,24.723 25.087,24.707 25.079,24.689 C25.515,24.885 25.996,25 26.504,25 C27.484,25 28.368,24.592 29.004012,23.941 L29.004012,27.841 C29.004012,27.846 29.011,28.385 28.687,28.716 L28.687,28.716 Z M16.144,29 C15.778,29 15.508,28.907 15.322,28.716 C14.997,28.385 15.0039881,27.846 15.0039881,27.827 L15.0039881,23.941 C15.64,24.592 16.525,25 17.504,25 C18.013,25 18.493,24.885 18.93,24.689 C18.922,24.707 18.915,24.723 18.908,24.741 C18.285,26.23 17.125,29 16.144,29 L16.144,29 Z M17.504,19 C18.883,19 20.004,20.121 20.004,21.5 C20.004,22.878 18.883,24 17.504,24 C16.125,24 15.004,22.878 15.004,21.5 C15.004,20.121 16.125,19 17.504,19 L17.504,19 Z M23.355,23 L20.653,23 C20.872,22.543 21.004,22.039 21.004,21.5 C21.004,20.961 20.872,20.456 20.653,20 L23.355,20 C23.137,20.456 23.004,20.961 23.004,21.5 C23.004,22.039 23.137,22.543 23.355,23 L23.355,23 Z M26.504,19 C27.883,19 29.004,20.121 29.004,21.5 C29.004,22.878 27.883,24 26.504,24 C25.125,24 24.004,22.878 24.004,21.5 C24.004,20.121 25.125,19 26.504,19 L26.504,19 Z M30.004,27.827 L30.004,21.5 C30.004,19.57 28.434,18 26.504,18 C25.554,18 24.694,18.383 24.063,19 L19.946,19 C19.315,18.383 18.454,18 17.504,18 C15.575,18 14.004,19.57 14.004,21.5 L14.004,27.81 C14.001,27.907 13.99,28.777 14.598,29.406 C14.979,29.8 15.498,30 16.144,30 C17.791,30 18.922,27.298 19.83,25.128 C20.008,24.702 20.17,24.314 20.317,24 L23.692,24 C23.838,24.314 24,24.702 24.178,25.128 C25.086,27.298 26.217,30 27.865,30 C28.51,30 29.03,29.8 29.411,29.406 C30.019,28.777 30.007,27.907 30.004,27.827 L30.004,27.827 Z M17.004,22 L16.004,22 L16.004,21 L17.004,21 L17.004,20 L18.004,20 L18.004,21 L19.004,21 L19.004,22 L18.004,22 L18.004,23 L17.004,23 L17.004,22 Z M18.236,4.211 C18.486,4.602 18.818,4.934 19.208,5.184 C18.818,5.434 18.486,5.767 18.236,6.157 C17.986,5.767 17.654,5.434 17.263,5.184 C17.654,4.934 17.986,4.602 18.236,4.211 L18.236,4.211 Z M15.551,5.684 C16.755,5.684 17.736,6.664 17.736,7.868 C17.736,8.145 17.959,8.368 18.236,8.368 C18.512,8.368 18.736,8.145 18.736,7.868 C18.736,6.664 19.716,5.684 20.92,5.684 C21.197,5.684 21.42,5.461 21.42,5.184 C21.42,4.908 21.197,4.684 20.92,4.684 C19.716,4.684 18.736,3.704 18.736,2.5 C18.736,2.223 18.512,2 18.236,2 C17.959,2 17.736,2.223 17.736,2.5 C17.736,3.704 16.755,4.684 15.551,4.684 C15.275,4.684 15.051,4.908 15.051,5.184 C15.051,5.461 15.275,5.684 15.551,5.684 L15.551,5.684 Z M9.146,18.704 C8.396,16.673 6.864,15.033 4.979,14.25 C6.864,13.466 8.396,11.827 9.146,9.796 C9.896,11.827 11.428,13.466 13.313,14.25 C11.428,15.033 9.896,16.673 9.146,18.704 L9.146,18.704 Z M16.291,14.25 C16.291,13.973 16.068,13.75 15.791,13.75 C12.46,13.75 9.646,10.658 9.646,7 C9.646,6.723 9.422,6.5 9.146,6.5 C8.87,6.5 8.646,6.723 8.646,7 C8.646,10.658 5.831,13.75 2.5,13.75 C2.224,13.75 2,13.973 2,14.25 C2,14.526 2.224,14.75 2.5,14.75 C5.831,14.75 8.646,17.841 8.646,21.5 C8.646,21.776 8.87,22 9.146,22 C9.422,22 9.646,21.776 9.646,21.5 C9.646,17.841 12.46,14.75 15.791,14.75 C16.068,14.75 16.291,14.526 16.291,14.25 L16.291,14.25 Z M26.009,10.448 C26.373,11.103 26.915,11.645 27.571,12.009 C26.915,12.373 26.373,12.915 26.009,13.57 C25.646,12.915 25.103,12.373 24.449,12.009 C25.103,11.645 25.646,11.103 26.009,10.448 L26.009,10.448 Z M22.515,12.509 C24.166,12.509 25.509,13.853 25.509,15.504 C25.509,15.78 25.733,16.004 26.009,16.004 C26.286,16.004 26.509,15.78 26.509,15.504 C26.509,13.853 27.853,12.509 29.504,12.509 C29.781,12.509 30.004,12.285 30.004,12.009 C30.004,11.733 29.781,11.509 29.504,11.509 C27.853,11.509 26.509,10.166 26.509,8.514 C26.509,8.238 26.286,8.014 26.009,8.014 C25.733,8.014 25.509,8.238 25.509,8.514 C25.509,10.166 24.166,11.509 22.515,11.509 C22.239,11.509 22.015,11.733 22.015,12.009 C22.015,12.285 22.239,12.509 22.515,12.509 L22.515,12.509 Z" id="Fill-9"></path>
        </g>
    </g>
</svg>