<?xml version="1.0" encoding="UTF-8"?>
<svg width="40px" height="40px" viewBox="0 0 40 40" version="1.1" xmlns="http://www.w3.org/2000/svg" xmlns:xlink="http://www.w3.org/1999/xlink">
    <title>Icon-Architecture/32/Arch_Open-3D-Engine_32</title>
    <defs>
        <linearGradient x1="0%" y1="100%" x2="100%" y2="0%" id="linearGradient-1">
            <stop stop-color="#4D27A8" offset="0%"></stop>
            <stop stop-color="#A166FF" offset="100%"></stop>
        </linearGradient>
    </defs>
    <g id="Icon-Architecture/32/Arch_Open-3D-Engine_32" stroke="none" stroke-width="1" fill="none" fill-rule="evenodd">
        <g id="Rectangle" fill="url(#linearGradient-1)">
            <rect x="0" y="0" width="40" height="40"></rect>
        </g>
        <g id="Icon-Service/32/Open-3D-Engine_32" transform="translate(4.000000, 4.000000)" fill="#FFFFFF">
            <path d="M26.502,22.248 C26.916,22.248 27.252,21.912 27.252,21.498 C27.252,21.084 26.916,20.748 26.502,20.748 C26.088,20.748 25.752,21.084 25.752,21.498 C25.752,21.912 26.088,22.248 26.502,22.248 L26.502,22.248 Z M29.000012,27.841 L29.000012,23.941 C28.364,24.592 27.48,25 26.5,25 C25.992,25 25.511,24.885 25.075,24.689 C25.083,24.707 25.089,24.723 25.097,24.741 C25.72,26.23 26.879,29 27.861,29 C28.227,29 28.496,28.907 28.683,28.716 C29.007,28.385 29.000012,27.846 29.000012,27.841 L29.000012,27.841 Z M18.904,24.741 C18.911,24.723 18.918,24.707 18.926,24.689 C18.489,24.885 18.009,25 17.5,25 C16.521,25 15.636,24.592 14.9999881,23.941 L14.9999881,27.827 C14.9999881,27.846 14.993,28.385 15.318,28.716 C15.504,28.907 15.774,29 16.14,29 C17.121,29 18.281,26.23 18.904,24.741 L18.904,24.741 Z M15,21.5 C15,22.878 16.121,24 17.5,24 C18.879,24 20,22.878 20,21.5 C20,20.121 18.879,19 17.5,19 C16.121,19 15,20.121 15,21.5 L15,21.5 Z M23,21.5 C23,20.961 23.133,20.456 23.351,20 L20.649,20 C20.868,20.456 21,20.961 21,21.5 C21,22.039 20.868,22.543 20.649,23 L23.351,23 C23.133,22.543 23,22.039 23,21.5 L23,21.5 Z M24,21.5 C24,22.878 25.121,24 26.5,24 C27.879,24 29,22.878 29,21.5 C29,20.121 27.879,19 26.5,19 C25.121,19 24,20.121 24,21.5 L24,21.5 Z M29.407,29.406 C29.026,29.8 28.506,30 27.861,30 C26.213,30 25.082,27.298 24.174,25.128 C23.996,24.702 23.834,24.314 23.688,24 L20.313,24 C20.166,24.314 20.004,24.702 19.826,25.128 C18.918,27.298 17.787,30 16.14,30 C15.494,30 14.975,29.8 14.594,29.406 C13.986,28.777 13.997,27.907 14,27.81 L14,21.5 C14,19.57 15.571,18 17.5,18 C18.45,18 19.311,18.383 19.942,19 L24.059,19 C24.69,18.383 25.55,18 26.5,18 C28.43,18 30,19.57 30,21.5 L30,27.827 C30.003,27.907 30.015,28.777 29.407,29.406 L29.407,29.406 Z M17,23 L18,23 L18,22 L19,22 L19,21 L18,21 L18,20 L17,20 L17,21 L16,21 L16,22 L17,22 L17,23 Z M23.424,17.071 C23.475,16.717 23.5,16.357 23.5,16 C23.5,11.864 20.136,8.5 16,8.5 C11.865,8.5 8.5,11.864 8.5,16 C8.5,18.748 10.001,21.274 12.417,22.59 L12.896,21.712 C10.801,20.571 9.5,18.382 9.5,16 C9.5,12.416 12.416,9.5 16,9.5 C19.584,9.5 22.5,12.416 22.5,16 C22.5,16.31 22.478,16.622 22.434,16.929 L23.424,17.071 Z M11.642,26.353 C12.134,26.719 12.6,27.064 13.128,27.204 L12.872,28.171 C12.158,27.982 11.593,27.562 11.046,27.157 C10.886,27.038 10.726,26.92 10.564,26.808 L9.195,28.177 C8.994,28.378 8.727,28.488 8.443,28.488 C8.159,28.488 7.892,28.378 7.692,28.177 L4.51,24.996 C4.309,24.795 4.199,24.528 4.199,24.244 C4.199,23.96 4.31,23.693 4.51,23.493 L5.895,22.109 C5.532,21.435 5.239,20.728 5.019,20 L3.063,20 C2.477,20 2,19.523 2,18.937 L2,14.062 C2,13.476 2.477,13 3.063,13 L4.82,13 C5.03,12.207 5.311,11.438 5.66,10.704 L4.288,9.139 C3.939,8.739 3.939,8.138 4.287,7.738 L7.262,4.348 C7.664,3.888 8.457,3.888 8.86,4.348 L10.073,5.732 C10.69,5.358 11.335,5.054 12,4.826 L12,3.062 C12,2.476 12.477,2 13.063,2 L17.938,2 C18.524,2 19,2.476 19,3.062 L19,5.099 C19.791,5.328 20.559,5.636 21.29,6.019 L22.825,4.539 C23.237,4.141 23.886,4.14 24.298,4.539 L27.732,7.852 C27.941,8.054 28.056,8.325 28.056,8.616 C28.056,8.907 27.941,9.179 27.731,9.381 L26.246,10.814 C26.635,11.513 26.95,12.245 27.185,13 L28.938,13 C29.524,13 30,13.476 30,14.062 L30,18 L29,18 L29,14.062 L26.811,14 C26.586,14 26.388,13.849 26.328,13.632 C26.075,12.709 25.692,11.819 25.189,10.984 C25.069,10.784 25.103,10.529 25.27,10.366 L27.036,8.661 L23.604,5.259 L21.721,6.992 C21.563,7.146 21.322,7.175 21.129,7.069 C20.262,6.582 19.336,6.211 18.376,5.966 C18.156,5.909 18,5.71 18,5.481 L18,3.062 L13.063,3 L13,5.19 C13,5.41 12.856,5.605 12.645,5.668 C11.812,5.919 11.008,6.3 10.255,6.8 C10.045,6.936 9.767,6.901 9.603,6.713 L8.108,5.008 L5.04,8.397 L6.633,10.296 C6.768,10.45 6.795,10.671 6.702,10.853 C6.259,11.722 5.921,12.65 5.699,13.613 C5.646,13.839 5.444,14 5.211,14 L3.063,14 L3,18.937 L5.397,19 C5.623,19 5.823,19.153 5.88,19.372 C6.117,20.269 6.477,21.134 6.948,21.943 C7.062,22.139 7.03,22.387 6.869,22.548 L5.217,24.2 L8.399,27.47 L10.14,25.818 C10.301,25.657 10.548,25.624 10.745,25.739 C11.054,25.919 11.347,26.135 11.642,26.353 L11.642,26.353 Z" id="Fill-9"></path>
        </g>
    </g>
</svg>