<?xml version="1.0" encoding="UTF-8"?>
<svg width="40px" height="40px" viewBox="0 0 40 40" version="1.1" xmlns="http://www.w3.org/2000/svg" xmlns:xlink="http://www.w3.org/1999/xlink">
    <title>Icon-Architecture/32/Arch_AWS-GameKit_32</title>
    <defs>
        <linearGradient x1="0%" y1="100%" x2="100%" y2="0%" id="linearGradient-1">
            <stop stop-color="#4D27A8" offset="0%"></stop>
            <stop stop-color="#A166FF" offset="100%"></stop>
        </linearGradient>
    </defs>
    <g id="Icon-Architecture/32/Arch_AWS-GameKit_32" stroke="none" stroke-width="1" fill="none" fill-rule="evenodd">
        <g id="Rectangle" fill="url(#linearGradient-1)">
            <rect x="0" y="0" width="40" height="40"></rect>
        </g>
        <g id="Icon-Service/32/AWS-GameKit_32" transform="translate(4.000000, 4.000000)" fill="#FFFFFF">
            <path d="M25.752,21.498 C25.752,21.084 26.088,20.748 26.502,20.748 C26.916,20.748 27.252,21.084 27.252,21.498 C27.252,21.912 26.916,22.248 26.502,22.248 C26.088,22.248 25.752,21.912 25.752,21.498 L25.752,21.498 Z M28.683,28.716 C28.496,28.907 28.227,29 27.861,29 C26.879,29 25.72,26.23 25.097,24.741 C25.089,24.723 25.083,24.707 25.075,24.689 C25.511,24.885 25.992,25 26.5,25 C27.48,25 28.364,24.592 29.000012,23.941 L29.000012,27.841 C29.000012,27.846 29.007,28.385 28.683,28.716 L28.683,28.716 Z M16.14,29 C15.774,29 15.504,28.907 15.318,28.716 C14.993,28.385 14.9999881,27.846 14.9999881,27.827 L14.9999881,23.941 C15.636,24.592 16.521,25 17.5,25 C18.009,25 18.489,24.885 18.926,24.689 C18.918,24.707 18.911,24.723 18.904,24.741 C18.281,26.23 17.121,29 16.14,29 L16.14,29 Z M17.5,19 C18.879,19 20,20.121 20,21.5 C20,22.878 18.879,24 17.5,24 C16.121,24 15,22.878 15,21.5 C15,20.121 16.121,19 17.5,19 L17.5,19 Z M23.351,23 L20.649,23 C20.868,22.543 21,22.039 21,21.5 C21,20.961 20.868,20.456 20.649,20 L23.351,20 C23.133,20.456 23,20.961 23,21.5 C23,22.039 23.133,22.543 23.351,23 L23.351,23 Z M26.5,19 C27.879,19 29,20.121 29,21.5 C29,22.878 27.879,24 26.5,24 C25.121,24 24,22.878 24,21.5 C24,20.121 25.121,19 26.5,19 L26.5,19 Z M30,27.827 L30,21.5 C30,19.57 28.43,18 26.5,18 C25.55,18 24.69,18.383 24.059,19 L19.942,19 C19.311,18.383 18.45,18 17.5,18 C15.571,18 14,19.57 14,21.5 L14,27.81 C13.997,27.907 13.986,28.777 14.594,29.406 C14.975,29.8 15.494,30 16.14,30 C17.787,30 18.918,27.298 19.826,25.128 C20.004,24.702 20.166,24.314 20.313,24 L23.688,24 C23.834,24.314 23.996,24.702 24.174,25.128 C25.082,27.298 26.213,30 27.861,30 C28.506,30 29.026,29.8 29.407,29.406 C30.015,28.777 30.003,27.907 30,27.827 L30,27.827 Z M17,22 L16,22 L16,21 L17,21 L17,20 L18,20 L18,21 L19,21 L19,22 L18,22 L18,23 L17,23 L17,22 Z M3,12 L3,10.73 L6.185,8 L25.816,8 L29,10.73 L29,12 L28.5,12 L24,12 L24,10.5 C24,10.223 23.777,10 23.5,10 L20.5,10 C20.224,10 20,10.223 20,10.5 L20,12 L12,12 L12,10.5 C12,10.223 11.777,10 11.5,10 L8.5,10 C8.224,10 8,10.223 8,10.5 L8,12 L3.5,12 L3,12 Z M11,7 L21,7 L21,4 L11,4 L11,7 Z M21,15 L23,15 L23,11 L21,11 L21,15 Z M9,15 L11,15 L11,11 L9,11 L9,15 Z M4,21.5 L4,13 L8,13 L8,15.5 C8,15.776 8.224,16 8.5,16 L11.5,16 C11.777,16 12,15.776 12,15.5 L12,13 L20,13 L20,15.5 C20,15.776 20.224,16 20.5,16 L23.5,16 C23.777,16 24,15.776 24,15.5 L24,13 L28,13 L28,16.999 L29,16.999 L29,13 L29.5,13 C29.777,13 30,12.776 30,12.5 L30,10.5 C30,10.354 29.937,10.215 29.825,10.12 L26.325,7.12 C26.235,7.042 26.119,7 26,7 L22,7 L22,3.5 C22,3.223 21.777,3 21.5,3 L10.5,3 C10.224,3 10,3.223 10,3.5 L10,7 L6,7 C5.881,7 5.766,7.042 5.675,7.12 L2.175,10.12 C2.064,10.215 2,10.354 2,10.5 L2,12.5 C2,12.776 2.224,13 2.5,13 L3,13 L3,21.5 C3,22.439 3.561,23 4.5,23 L13.001,23 L13.001,22 L4.5,22 C4.117,22 4,21.883 4,21.5 L4,21.5 Z" id="Fill-4"></path>
        </g>
    </g>
</svg>