<?xml version="1.0" encoding="UTF-8"?>
<svg width="40px" height="40px" viewBox="0 0 40 40" version="1.1" xmlns="http://www.w3.org/2000/svg" xmlns:xlink="http://www.w3.org/1999/xlink">
    <title>Icon-Architecture/32/Arch_AWS-IoT-ExpressLink_32</title>
    <defs>
        <linearGradient x1="0%" y1="100%" x2="100%" y2="0%" id="linearGradient-1">
            <stop stop-color="#1B660F" offset="0%"></stop>
            <stop stop-color="#6CAE3E" offset="100%"></stop>
        </linearGradient>
    </defs>
    <g id="Icon-Architecture/32/Arch_AWS-IoT-ExpressLink_32" stroke="none" stroke-width="1" fill="none" fill-rule="evenodd">
        <g id="Rectangle" fill="url(#linearGradient-1)">
            <rect x="0" y="0" width="40" height="40"></rect>
        </g>
        <g id="Icon-Service/32/AWS-IoT-ExpressLink_32" transform="translate(4.000000, 4.000000)" fill="#FFFFFF">
            <path d="M27.409,10.0948847 C26.743,9.68688474 25.967,9.36788474 25.226,9.19688474 C25.012,7.51488474 24.09,6.28088474 22.716,5.86488474 C21.665,5.54788474 20.557,5.77888474 19.719,6.45088474 C19.287,5.52788474 18.722,4.72988474 18.035,4.07288474 C15.821,1.95488474 12.793,1.38188474 9.936,2.53388474 C7.488,3.52188474 5.642,6.25688474 5.642,8.89488474 C5.642,9.03888474 5.646,9.18188474 5.655,9.32388474 C4.316,9.74788474 2.05,10.9438847 2.05,14.1638847 C2.05,17.0838847 3.405,18.3328847 4.214,18.8168847 C4.638,19.0718847 5.729,19.5278847 6.391,19.5288847 L7.195,19.5288847 L7.195,18.5288847 L6.391,18.5288847 C6.022,18.5278847 5.141,18.2078847 4.727,17.9598847 C3.962,17.5008847 3.05,16.4698847 3.05,14.1638847 C3.05,11.3868847 5.093,10.4758847 6.31,10.1798847 C6.557,10.1198847 6.721,9.88388474 6.688,9.63088474 C6.658,9.38988474 6.642,9.14388474 6.642,8.89488474 C6.642,6.67788474 8.254,4.29188474 10.311,3.46188474 C12.791,2.45688474 15.423,2.95788474 17.344,4.79488474 C18.092,5.51088474 18.675,6.42388474 19.078,7.50988474 C19.141,7.67988474 19.292,7.80288474 19.472,7.82988474 C19.642,7.85588474 19.831,7.78488474 19.942,7.64188474 C20.542,6.86688474 21.516,6.54588474 22.426,6.82188474 C23.475,7.13988474 24.161,8.17688474 24.259,9.52688474 C24.236,9.65788474 24.267,9.79288474 24.345,9.90188474 C24.422,10.0108847 24.54,10.0838847 24.671,10.1048847 C25.4,10.2238847 26.207,10.5308847 26.886,10.9478847 C28.742,12.0848847 28.957,13.2668847 28.957,14.0568847 C28.957,18.3128847 25.103,18.5218847 24.939,18.5288847 L24.976,19.5278847 C25.026,19.5268847 29.957,19.2878847 29.957,14.0568847 C29.957,12.4418847 29.123,11.1458847 27.409,10.0948847 L27.409,10.0948847 Z M21.986,12.9418847 C21.986,12.4348847 21.573,12.0218847 21.066,12.0218847 L20.986,12.0218847 L20.986,10.0218847 L19.986,10.0218847 L19.986,12.0218847 L17.986,12.0218847 L17.986,10.0218847 L16.986,10.0218847 L16.986,12.0218847 L14.986,12.0218847 L14.986,10.0218847 L13.986,10.0218847 L13.986,12.0218847 L11.986,12.0218847 L11.986,10.0218847 L10.986,10.0218847 L10.986,12.0218847 L10.906,12.0218847 C10.399,12.0218847 9.986,12.4348847 9.986,12.9418847 L9.986,13.0218847 L7.986,13.0218847 L7.986,14.0218847 L9.986,14.0218847 L9.986,16.0218847 L7.986,16.0218847 L7.986,17.0218847 L9.986,17.0218847 L9.986,19.0218847 L7.986,19.0218847 L7.986,20.0218847 L9.986,20.0218847 L9.986,22.0218847 L7.986,22.0218847 L7.986,23.0218847 L9.986,23.0218847 L9.986,23.1018847 C9.986,23.6098847 10.399,24.0218847 10.906,24.0218847 L12.986,24.0218847 L12.986,23.0218847 L10.986,23.0218847 L10.986,13.0218847 L20.986,13.0218847 L20.986,23.0218847 L15.986,23.0218847 L15.986,24.0218847 L21.066,24.0218847 C21.573,24.0218847 21.986,23.6098847 21.986,23.1018847 L21.986,23.0218847 L23.986,23.0218847 L23.986,22.0218847 L21.986,22.0218847 L21.986,20.0218847 L23.986,20.0218847 L23.986,19.0218847 L21.986,19.0218847 L21.986,17.0218847 L23.986,17.0218847 L23.986,16.0218847 L21.986,16.0218847 L21.986,14.0218847 L23.986,14.0218847 L23.986,13.0218847 L21.986,13.0218847 L21.986,12.9418847 Z M19.986,28.0218847 L20.986,28.0218847 L20.986,25.0218847 L19.986,25.0218847 L19.986,28.0218847 Z M16.986,29.0218847 L17.986,29.0218847 L17.986,26.0218847 L16.986,26.0218847 L16.986,29.0218847 Z M13.986,28.0218847 L14.986,28.0218847 L14.986,21.0218847 L13.986,21.0218847 L13.986,28.0218847 Z M10.986,30.0218847 L11.986,30.0218847 L11.986,25.0218847 L10.986,25.0218847 L10.986,30.0218847 Z" id="Fill-4"></path>
        </g>
    </g>
</svg>