<?xml version="1.0" encoding="UTF-8"?>
<svg width="40px" height="40px" viewBox="0 0 40 40" version="1.1" xmlns="http://www.w3.org/2000/svg" xmlns:xlink="http://www.w3.org/1999/xlink">
    <title>Icon-Architecture/32/Arch_AWS-IoT-RoboRunner_32</title>
    <defs>
        <linearGradient x1="0%" y1="100%" x2="100%" y2="0%" id="linearGradient-1">
            <stop stop-color="#1B660F" offset="0%"></stop>
            <stop stop-color="#6CAE3E" offset="100%"></stop>
        </linearGradient>
    </defs>
    <g id="Icon-Architecture/32/Arch_AWS-IoT-RoboRunner_32" stroke="none" stroke-width="1" fill="none" fill-rule="evenodd">
        <g id="Rectangle" fill="url(#linearGradient-1)">
            <rect x="0" y="0" width="40" height="40"></rect>
        </g>
        <g id="Icon-Service/32/AWS-IoT-RoboRunner_32" transform="translate(4.000000, 4.000000)" fill="#FFFFFF">
            <path d="M6,27.5 C6,26.673 5.327,26 4.5,26 C3.673,26 3,26.673 3,27.5 C3,28.327 3.673,29 4.5,29 C5.327,29 6,28.327 6,27.5 L6,27.5 Z M6.949,27 L14,27 L14,28 L6.949,28 C6.717,29.14 5.708,30 4.5,30 C3.121,30 2,28.878 2,27.5 C2,26.122 3.121,25 4.5,25 C5.708,25 6.717,25.86 6.949,27 L6.949,27 Z M29,27.5 C29,26.673 28.327,26 27.5,26 C26.673,26 26,26.673 26,27.5 C26,28.327 26.673,29 27.5,29 C28.327,29 29,28.327 29,27.5 L29,27.5 Z M16.25,21 C18.869,21 21,18.869 21,16.25 C21,13.631 18.869,11.5 16.25,11.5 C13.631,11.5 11.5,13.631 11.5,16.25 C11.5,18.869 13.631,21 16.25,21 L16.25,21 Z M6,4.5 C6,3.673 5.327,3 4.5,3 C3.673,3 3,3.673 3,4.5 C3,5.327 3.673,6 4.5,6 C5.327,6 6,5.327 6,4.5 L6,4.5 Z M30,27.5 C30,28.878 28.879,30 27.5,30 C26.292,30 25.283,29.14 25.051,28 L16.5,28 C16.224,28 16,27.776 16,27.5 L16,21.987 C12.946,21.855 10.5,19.336 10.5,16.25 C10.5,13.164 12.946,10.645 16,10.513 L16,5 L6.949,5 C6.717,6.14 5.708,7 4.5,7 C3.121,7 2,5.878 2,4.5 C2,3.122 3.121,2 4.5,2 C5.708,2 6.717,2.86 6.949,4 L16.5,4 C16.776,4 17,4.224 17,4.5 L17,10.555 C19.817,10.924 22,13.334 22,16.25 C22,19.166 19.817,21.576 17,21.945 L17,27 L25.051,27 C25.283,25.86 26.292,25 27.5,25 C28.879,25 30,26.122 30,27.5 L30,27.5 Z M26,4.5 C26,5.327 26.673,6 27.5,6 C28.327,6 29,5.327 29,4.5 C29,3.673 28.327,3 27.5,3 C26.673,3 26,3.673 26,4.5 L26,4.5 Z M25.051,5 L19,5 L19,4 L25.051,4 C25.283,2.86 26.292,2 27.5,2 C28.879,2 30,3.122 30,4.5 C30,5.878 28.879,7 27.5,7 C26.292,7 25.283,6.14 25.051,5 L25.051,5 Z M23.021,23.02 C26.892,19.149 26.892,12.851 23.021,8.98 L22.313,9.687 C25.735,13.109 25.735,18.891 22.313,22.313 L23.021,23.02 Z M9.687,9.687 C6.265,13.109 6.265,18.891 9.687,22.313 L8.979,23.02 C5.108,19.149 5.108,12.851 8.979,8.98 L9.687,9.687 Z" id="Fill-3"></path>
        </g>
    </g>
</svg>