<?xml version="1.0" encoding="UTF-8"?>
<svg width="40px" height="40px" viewBox="0 0 40 40" version="1.1" xmlns="http://www.w3.org/2000/svg" xmlns:xlink="http://www.w3.org/1999/xlink">
    <title>Icon-Architecture/32/Arch_AWS-IoT-FleetWise_32</title>
    <defs>
        <linearGradient x1="0%" y1="100%" x2="100%" y2="0%" id="linearGradient-1">
            <stop stop-color="#1B660F" offset="0%"></stop>
            <stop stop-color="#6CAE3E" offset="100%"></stop>
        </linearGradient>
    </defs>
    <g id="Icon-Architecture/32/Arch_AWS-IoT-FleetWise_32" stroke="none" stroke-width="1" fill="none" fill-rule="evenodd">
        <g id="Rectangle" fill="url(#linearGradient-1)">
            <rect x="0" y="0" width="40" height="40"></rect>
        </g>
        <g id="Icon-Service/32/AWS-IoT-FleetWise_32" transform="translate(4.000000, 4.000000)" fill="#FFFFFF">
            <path d="M16.99,27.0324057 L16.99,23.7674057 C16.99,22.7874057 17.656,21.9904057 18.474,21.9904057 L21.792,21.9904057 C21.241,24.4264057 19.38,26.3654057 16.99,27.0324057 M13.976,27.1764057 L13.976,23.7674057 C13.976,22.2364057 12.602,20.9904057 10.914,20.9904057 L8.395,20.9904057 C8.383,20.8244057 8.37,20.6594057 8.37,20.4904057 C8.37,20.3214057 8.383,20.1564057 8.395,19.9904057 L10.566,19.9904057 C11.666,19.9894057 12.678,19.5224057 13.275,18.7404057 C13.756,18.1114057 14.484,17.7504057 15.275,17.7504057 C16.066,17.7504057 16.795,18.1114057 17.275,18.7414057 C17.873,19.5234057 18.886,19.9904057 19.984,19.9904057 L21.939,19.9904057 C21.951,20.1564057 21.965,20.3214057 21.965,20.4904057 C21.965,20.6594057 21.951,20.8244057 21.939,20.9904057 L18.474,20.9904057 C17.104,20.9904057 15.99,22.2364057 15.99,23.7674057 L15.99,27.2334057 C15.72,27.2654057 15.447,27.2874057 15.168,27.2874057 C14.761,27.2874057 14.364,27.2454057 13.976,27.1764057 M8.542,21.9904057 L10.914,21.9904057 C12.052,21.9904057 12.976,22.7874057 12.976,23.7674057 L12.976,26.9184057 C10.764,26.1624057 9.065,24.2994057 8.542,21.9904057 M15.168,13.6934057 C18.4,13.6934057 21.107,15.9624057 21.792,18.9904057 L19.984,18.9904057 C19.195,18.9904057 18.479,18.6704057 18.07,18.1344057 C17.399,17.2554057 16.381,16.7504057 15.275,16.7504057 C14.171,16.7504057 13.151,17.2544057 12.48,18.1344057 C12.071,18.6694057 11.355,18.9894057 10.566,18.9904057 L8.542,18.9904057 C9.228,15.9624057 11.936,13.6934057 15.168,13.6934057 M15.168,12.6934057 C10.868,12.6934057 7.37,16.1914057 7.37,20.4904057 C7.37,24.7894057 10.868,28.2874057 15.168,28.2874057 C19.467,28.2874057 22.965,24.7894057 22.965,20.4904057 C22.965,16.1914057 19.467,12.6934057 15.168,12.6934057 M25.238,19.9904057 L25.024,19.9894057 C24.761,14.7734057 20.448,10.6084057 15.168,10.6084057 C10.143,10.6084057 5.99,14.3804057 5.373,19.2404057 C4.249,18.4344057 3.461,17.0414057 3.324,15.5514057 C3.307,15.3724057 3.3,15.1864057 3.3,14.9934057 C3.3,13.5684057 4.321,11.5664057 6.24,11.5134057 C6.492,11.5064057 6.7,11.3124057 6.724,11.0614057 L6.776,10.5214057 C6.779,10.4864057 6.779,10.4504057 6.774,10.4144057 C6.743,10.1464057 6.726,9.87240571 6.726,9.59440571 C6.726,7.13140571 8.392,4.48240571 10.518,3.56340571 C14.191,1.97640571 16.792,4.06340571 17.741,5.03440571 C18.515,5.82640571 19.119,6.83840571 19.535,8.04240571 C19.596,8.21840571 19.75,8.34540571 19.934,8.37340571 C20.119,8.40040571 20.303,8.32340571 20.413,8.17140571 C21.011,7.34440571 21.985,6.98140571 22.893,7.24040571 C24.023,7.56540571 24.761,8.73140571 24.865,10.3064057 C24.823,10.5754057 25.005,10.8284057 25.273,10.8754057 C26.479,11.0874057 29.286,11.9544057 29.286,15.4364057 C29.286,19.5844057 25.361,19.9774057 25.238,19.9904057 M15.168,29.3724057 C10.269,29.3724057 6.285,25.3884057 6.285,20.4904057 C6.285,15.5924057 10.269,11.6084057 15.168,11.6084057 C20.065,11.6084057 24.05,15.5924057 24.05,20.4904057 C24.05,25.3884057 20.065,29.3724057 15.168,29.3724057 M25.838,9.97140571 C25.623,8.07240571 24.64,6.70240571 23.17,6.28040571 C22.123,5.97940571 21.018,6.24140571 20.184,6.95340571 C19.742,5.93740571 19.163,5.05940571 18.456,4.33640571 C16.181,2.00640571 13.064,1.37240571 10.122,2.64540571 C7.616,3.72840571 5.726,6.71640571 5.726,9.59440571 C5.726,9.89340571 5.743,10.1894057 5.775,10.4784057 L5.768,10.5524057 C3.614,10.8694057 2.3,13.0234057 2.3,14.9934057 C2.3,15.2174057 2.309,15.4334057 2.328,15.6424057 C2.513,17.6564057 3.648,19.4644057 5.291,20.3734057 C5.29,20.4124057 5.285,20.4514057 5.285,20.4904057 C5.285,25.9394057 9.719,30.3724057 15.168,30.3724057 C20.449,30.3724057 24.763,26.2054057 25.024,20.9884057 L25.277,20.9894057 C25.328,20.9844057 30.286,20.5144057 30.286,15.4364057 C30.286,11.4954057 27.259,10.3104057 25.838,9.97140571" id="Fill-5"></path>
        </g>
    </g>
</svg>