<?xml version="1.0" encoding="UTF-8"?>
<svg width="40px" height="40px" viewBox="0 0 40 40" version="1.1" xmlns="http://www.w3.org/2000/svg" xmlns:xlink="http://www.w3.org/1999/xlink">
    <title>Icon-Architecture/32/Arch_AWS-IoT-TwinMaker_32</title>
    <defs>
        <linearGradient x1="0%" y1="100%" x2="100%" y2="0%" id="linearGradient-1">
            <stop stop-color="#1B660F" offset="0%"></stop>
            <stop stop-color="#6CAE3E" offset="100%"></stop>
        </linearGradient>
    </defs>
    <g id="Icon-Architecture/32/Arch_AWS-IoT-TwinMaker_32" stroke="none" stroke-width="1" fill="none" fill-rule="evenodd">
        <g id="Rectangle" fill="url(#linearGradient-1)">
            <rect x="0" y="0" width="40" height="40"></rect>
        </g>
        <g id="Icon-Service/32/AWS-IoT-TwinMaker_32" transform="translate(4.000000, 4.000000)" fill="#FFFFFF">
            <path d="M25,16 L25,15 L24,15 L24,14 L25.5,14 C25.776,14 26,14.224 26,14.5 L26,16 L25,16 Z M25,24 L26,24 L26,25.5 C26,25.776 25.776,26 25.5,26 L24,26 L24,25 L25,25 L25,24 Z M14.5,14 L16,14 L16,15 L15,15 L15,16 L14,16 L14,14.5 C14,14.224 14.224,14 14.5,14 L14.5,14 Z M18,15 L22,15 L22,14 L18,14 L18,15 Z M8,19 L18,19 L18,25 L18,26 L18,29 L8,29 L8,19 Z M30,14.9484511 C30,11.1454799 27.002287,9.99907692 25.5924814,9.67139007 C25.3763579,7.86460295 24.4178102,6.55185134 22.9869926,6.12996705 C21.9323899,5.81931591 20.8257576,6.06883892 19.9872784,6.76730294 C19.549028,5.79025499 18.9746998,4.94448221 18.2742996,4.24702029 C16.0200114,2.00632366 12.9362493,1.39704658 10.0205832,2.61960914 C7.53416238,3.66379782 5.65809034,6.54784294 5.65809034,9.32766962 C5.65809034,9.48800569 5.6630932,9.64733966 5.67409949,9.80667364 C4.31432247,10.2506041 2,11.5082402 2,14.907365 C2,15.1248208 2.01000572,15.3342598 2.02801601,15.5346799 C2.25714694,17.9577588 4.40637507,19.944924 6.95483133,20.2505646 L6.95483133,29.4989498 C6.95483133,29.7755295 7.17895941,30 7.45511721,30 L18.4614065,30 C18.7375643,30 18.9616924,29.7755295 18.9616924,29.4989498 L18.9616924,25.9915982 L21.9634077,25.9915982 L21.9634077,24.9894977 L18.9616924,24.9894977 L18.9616924,18.4758447 C18.9616924,18.199265 18.7375643,17.9747945 18.4614065,17.9747945 L7.45511721,17.9747945 C7.17895941,17.9747945 6.95483133,18.199265 6.95483133,18.4758447 L6.95483133,19.2494663 C4.90966266,18.9558508 3.20668954,17.3665195 3.02458548,15.4404824 C3.00857633,15.2691232 3.00057176,15.0927536 3.00057176,14.907365 C3.00057176,11.9792274 5.04073756,10.9961669 6.28945111,10.66848 C6.31046312,10.6654737 6.33347627,10.6604632 6.35448828,10.6534485 C6.58862207,10.5833015 6.73670669,10.3548226 6.70668954,10.1123143 C6.67567181,9.85477446 6.65866209,9.59322624 6.65866209,9.32766962 C6.65866209,6.96672093 8.3056032,4.42639627 10.4078045,3.54354576 C14.0508862,2.01534256 16.6293596,4.02355188 17.5678959,4.95851161 C18.3333333,5.72010796 18.9306747,6.69014121 19.3419097,7.84456094 C19.4029445,8.01792432 19.556032,8.14418897 19.7381361,8.17124569 C19.918239,8.1962982 20.1043453,8.12314486 20.2134077,7.974834 C20.8147513,7.16914523 21.787307,6.82141637 22.7038308,7.09098139 C23.801458,7.41465984 24.5198685,8.52699135 24.6209262,10.0050895 C24.5769011,10.2766588 24.7600057,10.5331965 25.0301601,10.5792931 C26.2238422,10.7827195 28.9994282,11.615465 28.9994282,14.9484511 C28.9994282,17.6471076 27.0913379,18.708332 25.9656947,19.1021575 L25.9656947,17.9747945 L24.9651229,17.9747945 L24.9651229,21.9831963 L25.9656947,21.9831963 L25.9656947,20.1563672 C27.2444254,19.7825837 30,18.5570149 30,14.9484511 L30,14.9484511 Z" id="Fill-3"></path>
        </g>
    </g>
</svg>