<?xml version="1.0" encoding="UTF-8"?>
<svg width="40px" height="40px" viewBox="0 0 40 40" version="1.1" xmlns="http://www.w3.org/2000/svg" xmlns:xlink="http://www.w3.org/1999/xlink">
    <title>Icon-Architecture/32/Arch_Amazon-ECS-Anywhere_32</title>
    <defs>
        <linearGradient x1="0%" y1="100%" x2="100%" y2="0%" id="linearGradient-1">
            <stop stop-color="#C8511B" offset="0%"></stop>
            <stop stop-color="#FF9900" offset="100%"></stop>
        </linearGradient>
    </defs>
    <g id="Icon-Architecture/32/Arch_Amazon-ECS-Anywhere_32" stroke="none" stroke-width="1" fill="none" fill-rule="evenodd">
        <g id="Rectangle" fill="url(#linearGradient-1)">
            <rect x="0" y="0" width="40" height="40"></rect>
        </g>
        <g id="Icon-Service/32/Amazon-ECS-Anywhere_32" transform="translate(4.000000, 4.000000)" fill="#FFFFFF">
            <path d="M26.999,19.7892 L23.612,17.9332 C23.861,17.1602 23.999,16.3382 23.999,15.4832 C23.999,11.7642 21.444,8.6382 18,7.7462 L18,3.3882 L26.999,8.8442 L26.999,19.7892 Z M15.843,27.9932 L5,21.7022 L5,8.8152 L13.999,3.3862 L13.999,7.7462 C10.554,8.6382 7.999,11.7632 7.999,15.4832 C7.999,19.8942 11.588,23.4832 15.999,23.4832 C18.083,23.4832 19.978,22.6752 21.404,21.3642 L24.589,23.1822 L15.843,27.9932 Z M16.783,8.5302 C17.775,9.6692 18.383,12.2612 18.476,14.9962 L13.529,14.9962 C13.637,12.4182 14.216,9.9112 15.25,8.5242 C15.496,8.4982 15.746,8.4832 15.999,8.4832 C16.264,8.4832 16.525,8.5012 16.783,8.5302 L16.783,8.5302 Z M19.48,14.9962 C19.419,12.6482 18.987,10.3692 18.189,8.8392 C20.83,9.7122 22.775,12.1162 22.974,14.9962 L19.48,14.9962 Z M19.482,15.9962 L22.973,15.9962 C22.766,18.8282 20.871,21.1932 18.29,22.0912 C19.044,20.5062 19.438,18.2742 19.482,15.9962 L19.482,15.9962 Z M15.013,22.4062 C14.02,21.0832 13.525,18.5892 13.51,15.9962 L18.486,15.9962 C18.455,18.5192 17.976,20.9942 16.955,22.4102 C16.641,22.4532 16.324,22.4832 15.999,22.4832 C15.663,22.4832 15.336,22.4512 15.013,22.4062 L15.013,22.4062 Z M12.498,15.9962 C12.514,18.2812 12.894,20.5032 13.65,22.0692 C11.098,21.1562 9.23,18.8062 9.025,15.9962 L12.498,15.9962 Z M9.024,14.9962 C9.226,12.0802 11.216,9.6482 13.907,8.8032 C13.075,10.4112 12.608,12.6792 12.515,14.9962 L9.024,14.9962 Z M27.758,8.1342 L17.759,2.0722 C17.604,1.9782 17.411,1.9762 17.255,2.0642 C17.098,2.1532 17,2.3192 17,2.5002 L17,7.5522 C16.671,7.5112 16.339,7.4832 15.999,7.4832 C15.66,7.4832 15.327,7.5112 14.999,7.5522 L14.999,2.5002 C14.999,2.3202 14.902,2.1532 14.745,2.0642 C14.589,1.9762 14.395,1.9782 14.241,2.0722 L4.242,8.1042 C4.092,8.1952 4,8.3572 4,8.5332 L4,21.9902 C4,22.1682 4.095,22.3332 4.249,22.4232 L15.585,28.9992 C15.662,29.0442 15.749,29.0672 15.836,29.0672 C15.919,29.0672 16.002,29.0462 16.077,29.0052 L25.853,23.6272 C26.011,23.5402 26.11,23.3742 26.111,23.1932 C26.112,23.0122 26.017,22.8452 25.859,22.7552 L22.121,20.6232 C22.567,20.0932 22.94,19.5022 23.237,18.8682 L27.259,21.0722 C27.334,21.1132 27.416,21.1332 27.499,21.1332 C27.587,21.1332 27.676,21.1102 27.754,21.0632 C27.906,20.9742 27.999,20.8102 27.999,20.6332 L27.999,8.5622 C27.999,8.3872 27.908,8.2252 27.758,8.1342 L27.758,8.1342 Z" id="Fill-1"></path>
        </g>
    </g>
</svg>