<?xml version="1.0" encoding="UTF-8"?>
<svg width="24px" height="24px" viewBox="0 0 24 24" version="1.1" xmlns="http://www.w3.org/2000/svg" xmlns:xlink="http://www.w3.org/1999/xlink">
    <title>Icon-Architecture/16/Arch_AWS-Cloud-Control-API_16</title>
    <defs>
        <linearGradient x1="0%" y1="100%" x2="100%" y2="0%" id="linearGradient-1">
            <stop stop-color="#2E27AD" offset="0%"></stop>
            <stop stop-color="#527FFF" offset="100%"></stop>
        </linearGradient>
    </defs>
    <g id="Icon-Architecture/16/Arch_AWS-Cloud-Control-API_16" stroke="none" stroke-width="1" fill="none" fill-rule="evenodd">
        <g id="Rectangle" fill="url(#linearGradient-1)">
            <rect x="0" y="0" width="24" height="24"></rect>
        </g>
        <g id="Icon-Service/16/AWS-Cloud-Control-API_16" transform="translate(4.000000, 4.000000)" fill="#FFFFFF">
            <path d="M1.04531969,10.8489337 C0.931319694,10.3749337 1.02831969,9.91093369 1.32031969,9.54193369 C1.60731969,9.17793369 2.03631969,8.96893369 2.49931969,8.96893369 L9.26331969,8.96893369 L7.63431969,10.5979337 L8.34131969,11.3049337 L10.8233197,8.82293369 C10.9173197,8.72893369 10.9703197,8.60193369 10.9703197,8.46893369 C10.9703197,8.33593369 10.9173197,8.20893369 10.8233197,8.11593369 L8.34131969,5.63393369 L7.63431969,6.34093369 L9.26331969,7.96893369 L2.49931969,7.96893369 C1.72931969,7.96893369 1.01231969,8.31693369 0.534319694,8.92293369 C0.0573196936,9.52893369 -0.110680306,10.3159337 0.0723196936,11.0829337 C0.336319694,12.1759337 1.39731969,12.9689337 2.59531969,12.9689337 L2.74131969,12.9689337 L2.74131969,11.9689337 L2.59531969,11.9689337 C1.85331969,11.9689337 1.20131969,11.4979337 1.04531969,10.8489337 M15.9893197,9.78093369 C15.9893197,12.1299337 14.0403197,12.8919337 13.0103197,12.9679337 L5.19431969,12.9689337 L6.84131969,14.6159337 L6.13431969,15.3229337 L3.63031969,12.8189337 C3.53631969,12.7249337 3.48331969,12.5979337 3.48331969,12.4649337 C3.48331969,12.3319337 3.53631969,12.2049337 3.63031969,12.1119337 L6.13431969,9.60793369 L6.84131969,10.3149337 L5.18731969,11.9689337 L12.9743197,11.9689337 C13.1463197,11.9529337 14.9893197,11.7459337 14.9893197,9.78093369 C14.9893197,9.40993369 14.9213197,9.07793369 14.7863197,8.79393369 C14.6143197,8.43293369 14.3303197,8.13693369 13.9413197,7.91393369 C13.7813197,7.82393369 13.6173197,7.75293369 13.4613197,7.69793369 C13.2763197,7.63393369 13.1013197,7.59193369 12.9503197,7.56593369 C12.6813197,7.51893369 12.4993197,7.26393369 12.5433197,6.99393369 C12.5413197,6.84393369 12.5203197,6.65893369 12.4783197,6.49093369 C12.3533197,6.00193369 12.0383197,5.67393369 11.6153197,5.59193369 C11.2083197,5.51293369 10.7763197,5.68293369 10.5223197,6.02793369 C10.4123197,6.17693369 10.2253197,6.25093369 10.0463197,6.22593369 C9.86231969,6.19893369 9.70931969,6.07293369 9.64831969,5.89793369 C9.43231969,5.28593369 9.12131969,4.77293369 8.72431969,4.37293369 C8.23931969,3.88593369 6.90931969,2.83593369 5.03331969,3.63493369 C3.97131969,4.08593369 3.10731969,5.43893369 3.10731969,6.65093369 L2.10731969,6.65093369 C2.10731969,5.02093369 3.19631969,3.32793369 4.64331969,2.71393369 C6.33331969,1.99693369 8.12431969,2.35193369 9.43331969,3.66793369 C9.77831969,4.01593369 10.0703197,4.42493369 10.3053197,4.89193369 C10.7483197,4.61693369 11.2853197,4.50893369 11.8073197,4.61093369 C12.6123197,4.76693369 13.2263197,5.37793369 13.4463197,6.24493369 C13.4813197,6.38093369 13.5063197,6.52293369 13.5223197,6.66993369 C13.6083197,6.69393369 13.6993197,6.72193369 13.7903197,6.75393369 C14.0003197,6.82693369 14.2213197,6.92293369 14.4373197,7.04593369 C15.0063197,7.37093369 15.4283197,7.81493369 15.6903197,8.36493369 C15.8893197,8.78393369 15.9893197,9.25993369 15.9893197,9.78093369" id="Fill-8"></path>
        </g>
    </g>
</svg>