<?xml version="1.0" encoding="UTF-8"?>
<svg width="40px" height="40px" viewBox="0 0 40 40" version="1.1" xmlns="http://www.w3.org/2000/svg" xmlns:xlink="http://www.w3.org/1999/xlink">
    <title>Icon-Architecture/32/Arch_AWS-Mainframe-Modernization_32</title>
    <defs>
        <linearGradient x1="0%" y1="100%" x2="100%" y2="0%" id="linearGradient-1">
            <stop stop-color="#055F4E" offset="0%"></stop>
            <stop stop-color="#56C0A7" offset="100%"></stop>
        </linearGradient>
    </defs>
    <g id="Icon-Architecture/32/Arch_AWS-Mainframe-Modernization_32" stroke="none" stroke-width="1" fill="none" fill-rule="evenodd">
        <g id="Rectangle" fill="url(#linearGradient-1)">
            <rect x="0" y="0" width="40" height="40"></rect>
        </g>
        <g id="Icon-Service/32/AWS-Mainframe-Modernization_32" transform="translate(4.000000, 4.000000)" fill="#FFFFFF">
            <path d="M29.935,14.164 C29.935,14.329 29.928,14.491 29.914,14.652 C29.675,17.477 27.172,19.691 24.216,19.691 L24.216,18.691 C26.657,18.691 28.722,16.879 28.918,14.567 C28.93,14.434 28.935,14.299 28.935,14.164 C28.935,11.725 27.283,9.885 25.091,9.885 C24.815,9.885 24.591,9.662 24.591,9.385 C24.591,7.737 23.696,5.976 21.181,5.976 L20.747,5.976 C20.565,5.976 20.397,5.877 20.309,5.718 C19.194,3.703 17.083,2.5 14.664,2.5 C11.108,2.5 8.214,5.394 8.214,8.951 C8.214,9.227 7.991,9.451 7.714,9.451 C5.115,9.451 3,11.565 3,14.164 C3,14.629 3.128,18.705 7.542,18.705 L7.542,19.705 C3.714,19.705 2,16.922 2,14.164 C2,11.177 4.305,8.718 7.23,8.472 C7.477,4.585 10.717,1.5 14.664,1.5 C17.348,1.5 19.707,2.793 21.035,4.976 L21.181,4.976 C23.698,4.976 25.378,6.503 25.573,8.909 C28.091,9.155 29.935,11.332 29.935,14.164 L29.935,14.164 Z M23.373,24.197 L25.686,26.003 L20.6,29.976 L11.367,29.976 L6.281,26.003 L8.594,24.197 L9.209,24.985 L7.906,26.003 L11.71,28.976 L20.256,28.976 L24.061,26.003 L22.758,24.985 L23.373,24.197 Z M23.373,19.197 L25.686,21.003 L20.6,24.976 L11.367,24.976 L6.281,21.003 L8.594,19.197 L9.209,19.985 L7.906,21.003 L11.71,23.976 L20.256,23.976 L24.061,21.003 L22.758,19.985 L23.373,19.197 Z M11.697,12.976 L20.314,12.976 L24.153,15.976 L20.314,18.976 L11.697,18.976 L7.857,15.976 L11.697,12.976 Z M20.658,19.976 L25.778,15.976 L20.658,11.976 L11.353,11.976 L6.232,15.976 L11.353,19.976 L20.658,19.976 Z" id="Fill-5"></path>
        </g>
    </g>
</svg>