<?xml version="1.0" encoding="UTF-8"?>
<svg width="24px" height="24px" viewBox="0 0 24 24" version="1.1" xmlns="http://www.w3.org/2000/svg" xmlns:xlink="http://www.w3.org/1999/xlink">
    <title>Icon-Architecture/16/Arch_CN-CloudWAN_16</title>
    <defs>
        <linearGradient x1="0%" y1="100%" x2="100%" y2="0%" id="linearGradient-1">
            <stop stop-color="#4D27A8" offset="0%"></stop>
            <stop stop-color="#A166FF" offset="100%"></stop>
        </linearGradient>
    </defs>
    <g id="Icon-Architecture/16/Arch_CN-CloudWAN_16" stroke="none" stroke-width="1" fill="none" fill-rule="evenodd">
        <g id="Rectangle" fill="url(#linearGradient-1)">
            <rect x="0" y="0" width="24" height="24"></rect>
        </g>
        <g id="Icon-Service/16/CN-CloudWAN_16" transform="translate(4.000000, 4.000000)" fill="#FFFFFF">
            <path d="M14.986,7.975 C14.986,7.424 14.538,6.975 13.986,6.975 C13.434,6.975 12.986,7.424 12.986,7.975 C12.986,8.526 13.434,8.975 13.986,8.975 C14.538,8.975 14.986,8.526 14.986,7.975 M11.907,8.464 L8.474,8.464 L8.474,11.901 C10.267,11.676 11.683,10.259 11.907,8.464 M8.965,13.976 C8.965,13.435 8.525,12.995 7.984,12.995 C7.443,12.995 7.003,13.435 7.003,13.976 C7.003,14.517 7.443,14.958 7.984,14.958 C8.525,14.958 8.965,14.517 8.965,13.976 M7.474,11.899 L7.474,8.464 L4.061,8.464 C4.285,10.253 5.691,11.666 7.474,11.899 M4.063,7.464 L7.474,7.464 L7.474,4.049 C5.697,4.281 4.294,5.685 4.063,7.464 M7.003,1.981 C7.003,2.522 7.443,2.963 7.984,2.963 C8.525,2.963 8.965,2.522 8.965,1.981 C8.965,1.44 8.525,1 7.984,1 C7.443,1 7.003,1.44 7.003,1.981 M8.474,4.047 L8.474,7.464 L11.905,7.464 C11.673,5.678 10.26,4.271 8.474,4.047 M2.964,7.975 C2.964,7.434 2.523,6.994 1.981,6.994 C1.44,6.994 1,7.434 1,7.975 C1,8.516 1.44,8.956 1.981,8.956 C2.523,8.956 2.964,8.516 2.964,7.975 M15.986,7.975 C15.986,9.078 15.089,9.975 13.986,9.975 C13.492,9.975 13.045,9.788 12.695,9.49 C12.203,11.014 11.007,12.205 9.48,12.691 C9.778,13.038 9.965,13.484 9.965,13.976 C9.965,15.069 9.077,15.958 7.984,15.958 C6.891,15.958 6.003,15.069 6.003,13.976 C6.003,13.484 6.19,13.038 6.488,12.691 C4.955,12.203 3.755,11.003 3.267,9.471 C2.92,9.769 2.474,9.956 1.981,9.956 C0.888,9.956 5.15143483e-14,9.068 5.15143483e-14,7.975 C5.15143483e-14,6.882 0.888,5.994 1.981,5.994 C2.474,5.994 2.919,6.181 3.266,6.479 C3.754,4.948 4.951,3.748 6.482,3.259 C6.187,2.913 6.003,2.47 6.003,1.981 C6.003,0.889 6.891,4.17443857e-14 7.984,4.17443857e-14 C9.077,4.17443857e-14 9.965,0.889 9.965,1.981 C9.965,2.47 9.781,2.913 9.486,3.259 C11.01,3.746 12.205,4.938 12.696,6.46 C13.045,6.162 13.492,5.975 13.986,5.975 C15.089,5.975 15.986,6.872 15.986,7.975 M13.337,10.9 C12.856,11.776 12.159,12.512 11.328,13.061 C11.409,13.355 11.465,13.658 11.465,13.976 C11.465,14.044 11.449,14.108 11.445,14.175 C12.752,13.441 13.792,12.298 14.423,10.931 C14.279,10.952 14.136,10.975 13.986,10.975 C13.763,10.975 13.547,10.946 13.337,10.9 M2.898,11.319 C2.604,11.399 2.3,11.456 1.981,11.456 C1.914,11.456 1.851,11.44 1.785,11.437 C2.427,12.581 3.378,13.532 4.523,14.175 C4.519,14.108 4.503,14.044 4.503,13.976 C4.503,13.658 4.559,13.355 4.64,13.061 C3.947,12.604 3.355,12.012 2.898,11.319 M2.897,4.631 C3.354,3.938 3.945,3.346 4.638,2.889 C4.559,2.598 4.503,2.297 4.503,1.981 C4.503,1.91 4.519,1.843 4.524,1.773 C3.378,2.415 2.426,3.368 1.783,4.514 C1.85,4.51 1.913,4.494 1.981,4.494 C2.3,4.494 2.603,4.551 2.897,4.631 M11.33,2.889 C11.41,2.598 11.465,2.297 11.465,1.981 C11.465,1.91 11.449,1.843 11.444,1.773 C12.752,2.506 13.793,3.651 14.424,5.019 C14.28,4.998 14.136,4.975 13.986,4.975 C13.763,4.975 13.547,5.003 13.338,5.05 C12.857,4.174 12.161,3.438 11.33,2.889" id="Fill-8"></path>
        </g>
    </g>
</svg>