<?xml version="1.0" encoding="UTF-8"?>
<svg width="40px" height="40px" viewBox="0 0 40 40" version="1.1" xmlns="http://www.w3.org/2000/svg" xmlns:xlink="http://www.w3.org/1999/xlink">
    <title>Icon-Architecture/32/Arch_Amazon-Comprehend-Medical_32</title>
    <defs>
        <linearGradient x1="0%" y1="100%" x2="100%" y2="0%" id="linearGradient-1">
            <stop stop-color="#055F4E" offset="0%"></stop>
            <stop stop-color="#56C0A7" offset="100%"></stop>
        </linearGradient>
    </defs>
    <g id="Icon-Architecture/32/Arch_Amazon-Comprehend-Medical_32" stroke="none" stroke-width="1" fill="none" fill-rule="evenodd">
        <g id="Rectangle" fill="url(#linearGradient-1)">
            <rect x="0" y="0" width="40" height="40"></rect>
        </g>
        <g id="Icon-Service/32/Amazon-Comprehend-Medical_32" transform="translate(4.000000, 4.000000)" fill="#FFFFFF">
            <path d="M29.0007994,23 L26.5007994,23 C26.2247994,23 26.0007994,22.776 26.0007994,22.5 L26.0007994,20 L23.0007994,20 L23.0007994,22.5 C23.0007994,22.776 22.7767994,23 22.5007994,23 L20.0007994,23 L20.0007994,26 L22.5007994,26 C22.7767994,26 23.0007994,26.224 23.0007994,26.5 L23.0007994,29 L26.0007994,29 L26.0007994,26.5 C26.0007994,26.224 26.2247994,26 26.5007994,26 L29.0007994,26 L29.0007994,23 Z M30.0007994,22.5 L30.0007994,26.5 C30.0007994,26.776 29.7767994,27 29.5007994,27 L27.0007994,27 L27.0007994,29.5 C27.0007994,29.776 26.7767994,30 26.5007994,30 L22.5007994,30 C22.2247994,30 22.0007994,29.776 22.0007994,29.5 L22.0007994,27 L19.5007994,27 C19.2247994,27 19.0007994,26.776 19.0007994,26.5 L19.0007994,22.5 C19.0007994,22.224 19.2247994,22 19.5007994,22 L22.0007994,22 L22.0007994,19.5 C22.0007994,19.224 22.2247994,19 22.5007994,19 L26.5007994,19 C26.7767994,19 27.0007994,19.224 27.0007994,19.5 L27.0007994,22 L29.5007994,22 C29.7767994,22 30.0007994,22.224 30.0007994,22.5 L30.0007994,22.5 Z M3.0967994,5.986 L7.0007994,23.867 L7.0007994,5.185 L6.8757994,5.208 L3.0967994,5.986 Z M22.0007994,3.174 L22.0007994,6 L25.1177994,6 L22.0007994,3.174 Z M8.0007994,28 L19.0007994,28 L19.0007994,29 L7.5007994,29 C7.2617994,29 7.0707994,28.829 7.0217994,28.604 L7.0127994,28.606 L2.0117994,5.705 C1.9827994,5.574 2.0077994,5.438 2.0807994,5.326 C2.1527994,5.213 2.2687994,5.135 2.3987994,5.108 L7.0007994,4.177 L7.0007994,2.5 C7.0007994,2.224 7.2247994,2 7.5007994,2 L22.0007994,2 C22.1247994,2 22.2447994,2.046 22.3367994,2.129 L26.8367994,6.208 C26.9407994,6.303 27.0007994,6.438 27.0007994,6.579 L27.0007994,18 L26.0007994,18 L26.0007994,7 L21.5007994,7 C21.2247994,7 21.0007994,6.776 21.0007994,6.5 L21.0007994,3 L8.0007994,3 L8.0007994,28 Z M10.0007994,21 L18.0007994,21 L18.0007994,20 L10.0007994,20 L10.0007994,21 Z M10.0007994,18 L22.0007994,18 L22.0007994,17 L10.0007994,17 L10.0007994,18 Z M10.0007994,9 L19.0007994,9 L19.0007994,8 L10.0007994,8 L10.0007994,9 Z M10.0007994,15 L23.0007994,15 L23.0007994,14 L10.0007994,14 L10.0007994,15 Z M14.0007994,12 L23.0007994,12 L23.0007994,11 L14.0007994,11 L14.0007994,12 Z M10.0007994,12 L13.0007994,12 L13.0007994,11 L10.0007994,11 L10.0007994,12 Z" id="Fill-5"></path>
        </g>
    </g>
</svg>