<?xml version="1.0" encoding="UTF-8"?>
<svg width="40px" height="40px" viewBox="0 0 40 40" version="1.1" xmlns="http://www.w3.org/2000/svg" xmlns:xlink="http://www.w3.org/1999/xlink">
    <title>Icon-Architecture/32/Arch_Amazon-SageMaker-Studio-Lab_32</title>
    <defs>
        <linearGradient x1="0%" y1="100%" x2="100%" y2="0%" id="linearGradient-1">
            <stop stop-color="#055F4E" offset="0%"></stop>
            <stop stop-color="#56C0A7" offset="100%"></stop>
        </linearGradient>
    </defs>
    <g id="Icon-Architecture/32/Arch_Amazon-SageMaker-Studio-Lab_32" stroke="none" stroke-width="1" fill="none" fill-rule="evenodd">
        <g id="Rectangle" fill="url(#linearGradient-1)">
            <rect x="0" y="0" width="40" height="40"></rect>
        </g>
        <g id="Icon-Service/32/Amazon-SageMaker-Studio-Lab_32" transform="translate(4.000000, 4.000000)" fill="#FFFFFF">
            <path d="M20,23.0722264 L29,23.0722264 L29,9.07222639 L20,9.07222639 L20,23.0722264 Z M19,23.0722264 L19,9.07222639 L17,9.07222639 L17,11.0722264 L18,11.0722264 L18,12.0722264 L17,12.0722264 L17,15.0722264 L18,15.0722264 L18,16.0722264 L17,16.0722264 L17,19.0722264 L18,19.0722264 L18,20.0722264 L17,20.0722264 L17,23.0722264 L19,23.0722264 Z M30,8.57222639 L30,23.5722264 C30,23.8482264 29.776,24.0722264 29.5,24.0722264 L16.5,24.0722264 C16.224,24.0722264 16,23.8482264 16,23.5722264 L16,20.0722264 L15,20.0722264 L15,19.0722264 L16,19.0722264 L16,16.0722264 L15,16.0722264 L15,15.0722264 L16,15.0722264 L16,12.0722264 L15,12.0722264 L15,11.0722264 L16,11.0722264 L16,8.57222639 C16,8.29622639 16.224,8.07222639 16.5,8.07222639 L29.5,8.07222639 C29.776,8.07222639 30,8.29622639 30,8.57222639 L30,8.57222639 Z M16,25.0722264 L17,25.0722264 L17,27.5722264 C17,27.7612264 16.892,27.9342264 16.724,28.0192264 L12.724,30.0192264 C12.653,30.0542264 12.576,30.0722264 12.5,30.0722264 C12.414,30.0722264 12.329,30.0502264 12.252,30.0062264 L5.252,26.0062264 C5.096,25.9172264 5,25.7512264 5,25.5722264 L5,20.9002264 L2.273,19.5182264 C2.105,19.4332264 2,19.2602264 2,19.0722264 L2,12.5722264 C2,12.4052264 2.084,12.2492264 2.223,12.1562264 L5,10.3042264 L5,6.07222639 C5,5.89022639 5.1,5.72222639 5.259,5.63422639 L11.745,2.06122639 C11.885,1.98622639 12.052,1.97922639 12.195,2.04522639 L16.709,4.11722639 C16.886,4.19922639 17,4.37722639 17,4.57222639 L17,7.07222639 L16,7.07222639 L16,4.89322639 L12.007,3.05922639 L11,3.61322639 L11,8.07222639 L10,8.07222639 L10,4.16422639 L6,6.36722639 L6,9.79522639 L9.478,11.9692264 L12,10.2782264 L12,8.07222639 L13,8.07222639 L13,10.5452264 C13,10.7122264 12.917,10.8672264 12.778,10.9612264 L10,12.8222264 L10,15.0722264 L13,15.0722264 L13,16.0722264 L9.5,16.0722264 C9.224,16.0722264 9,15.8482264 9,15.5722264 L9,12.8492264 L5.879,10.8982264 C5.85,10.9322264 5.815,10.9632264 5.777,10.9882264 L3,12.8392264 L3,15.5782264 L6.199,13.1722264 L6.801,13.9712264 L3,16.8302264 L3,18.7652264 L5.726,20.1472264 C5.747,20.1572264 5.756,20.1792264 5.775,20.1922264 L8.18,18.1882264 L8.82,18.9562264 L6,21.3062264 L6,25.2822264 L8.655,26.7992264 L10,25.6992264 L10,20.0722264 L11,20.0722264 L11,24.8802264 L13.684,22.6852264 L14.316,23.4592264 L9.585,27.3302264 L12.516,29.0052264 L16,27.2632264 L16,25.0722264 Z" id="Fill-3"></path>
        </g>
    </g>
</svg>