<?xml version="1.0" encoding="UTF-8"?>
<svg width="40px" height="40px" viewBox="0 0 40 40" version="1.1" xmlns="http://www.w3.org/2000/svg" xmlns:xlink="http://www.w3.org/1999/xlink">
    <title>Icon-Architecture/32/Arch_AWS-Billing-Conductor_32</title>
    <defs>
        <linearGradient x1="0%" y1="100%" x2="100%" y2="0%" id="linearGradient-1">
            <stop stop-color="#1B660F" offset="0%"></stop>
            <stop stop-color="#6CAE3E" offset="100%"></stop>
        </linearGradient>
    </defs>
    <g id="Icon-Architecture/32/Arch_AWS-Billing-Conductor_32" stroke="none" stroke-width="1" fill="none" fill-rule="evenodd">
        <g id="Rectangle" fill="url(#linearGradient-1)">
            <rect x="0" y="0" width="40" height="40"></rect>
        </g>
        <g id="Icon-Service/32/AWS-Billing-Conductor_32" transform="translate(4.000000, 4.000000)" fill="#FFFFFF">
            <path d="M22,8 L26.293,8 L22,3.707 L22,8 Z M28,8.5 L28,29.5 C28,29.776 27.776,30 27.5,30 L6.5,30 C6.224,30 6,29.776 6,29.5 L6,23 L7,23 L7,29 L27,29 L27,9 L21.5,9 C21.224,9 21,8.776 21,8.5 L21,3 L7,3 L7,14 L6,14 L6,2.5 C6,2.224 6.224,2 6.5,2 L21.5,2 C21.633,2 21.76,2.053 21.854,2.146 L27.854,8.146 C27.947,8.24 28,8.367 28,8.5 L28,8.5 Z M19,23 L21,23 L21,22 L19,22 L19,23 Z M16,23 L18,23 L18,22 L16,22 L16,23 Z M13,23 L15,23 L15,22 L13,22 L13,23 Z M19,21 L21,21 L21,20 L19,20 L19,21 Z M16,21 L18,21 L18,20 L16,20 L16,21 Z M13,21 L15,21 L15,20 L13,20 L13,21 Z M14,17 L20,17 L20,15 L14,15 L14,17 Z M21,14.5 L21,17.5 C21,17.776 20.776,18 20.5,18 L13.5,18 C13.224,18 13,17.776 13,17.5 L13,14.5 C13,14.224 13.224,14 13.5,14 L20.5,14 C20.776,14 21,14.224 21,14.5 L21,14.5 Z M11,25 L23,25 L23,12 L11,12 L11,25 Z M10.5,26 C10.224,26 10,25.776 10,25.5 L10,11.5 C10,11.224 10.224,11 10.5,11 L23.5,11 C23.776,11 24,11.224 24,11.5 L24,25.5 C24,25.776 23.776,26 23.5,26 L10.5,26 Z M4,22 L9,22 L9,21 L4,21 L4,22 Z M5,19 L9,19 L9,18 L5,18 L5,19 Z M3,16 L9,16 L9,15 L3,15 L3,16 Z" id="Fill-4"></path>
        </g>
    </g>
</svg>