<?xml version="1.0" encoding="UTF-8"?>
<svg width="40px" height="40px" viewBox="0 0 40 40" version="1.1" xmlns="http://www.w3.org/2000/svg" xmlns:xlink="http://www.w3.org/1999/xlink">
    <title>Icon-Architecture/32/Arch_AWS-rePost_32</title>
    <defs>
        <linearGradient x1="0%" y1="100%" x2="100%" y2="0%" id="linearGradient-1">
            <stop stop-color="#2E27AD" offset="0%"></stop>
            <stop stop-color="#527FFF" offset="100%"></stop>
        </linearGradient>
    </defs>
    <g id="Icon-Architecture/32/Arch_AWS-rePost_32" stroke="none" stroke-width="1" fill="none" fill-rule="evenodd">
        <g id="Rectangle" fill="url(#linearGradient-1)">
            <rect x="0" y="0" width="40" height="40"></rect>
        </g>
        <g id="Icon-Service/32/AWS-rePost_32" transform="translate(4.000000, 4.000000)" fill="#FFFFFF">
            <path d="M15.2628097,19 L22.2628097,19 L22.2628097,18 L15.2628097,18 L15.2628097,19 Z M15.2628097,11 L21.2628097,11 L21.2628097,10 L15.2628097,10 L15.2628097,11 Z M15.2628097,8 L24.2628097,8 L24.2628097,7 L15.2628097,7 L15.2628097,8 Z M21.8008097,29 C22.0238097,27.365 23.3258097,26.106 24.8938097,26.106 C25.4548097,26.106 26.0048097,26.269 26.4828097,26.576 C27.2998097,27.099 27.8498097,28 27.9888097,29 L21.8008097,29 Z M24.8938097,21.412 C25.7618097,21.412 26.4678097,22.118 26.4678097,22.985 C26.4678097,23.853 25.7618097,24.559 24.8938097,24.559 C24.0268097,24.559 23.3208097,23.853 23.3208097,22.985 C23.3208097,22.118 24.0268097,21.412 24.8938097,21.412 L24.8938097,21.412 Z M18.7628097,22 C18.4858097,22 18.2628097,22.224 18.2628097,22.5 L18.2628097,24.2 L16.7368097,22.197 C16.6428097,22.073 16.4958097,22 16.3398097,22 L14.6258097,22 C13.6728097,22 12.7658097,21.536 12.1988097,20.757 C11.6268097,19.971 11.4758097,18.972 11.7848097,18.015 C12.1678097,16.829 13.3768097,16 14.7258097,16 L25.3728097,16 C26.6698097,16 27.8188097,16.751 28.2348097,17.869 C28.8308097,19.472 28.1008097,20.867 27.0238097,21.543 C26.5608097,20.861 25.7788097,20.412 24.8938097,20.412 C23.8248097,20.412 22.9068097,21.069 22.5188097,22 L18.7628097,22 Z M3.05180969,10.332 C2.81380969,8.449 3.37380969,6.631 4.62580969,5.211 C5.86480969,3.806 7.64180969,3 9.49880969,3 L21.3208097,3 C23.3278097,3 25.2388097,3.864 26.5638097,5.372 C27.7988097,6.776 28.3508097,8.537 28.1198097,10.33 C27.8638097,12.313 26.9128097,14.051 25.5718097,15.015 C25.5058097,15.012 25.4408097,15 25.3728097,15 L14.7258097,15 C13.6998097,15 12.7398097,15.38 12.0068097,16 L9.80980969,16 C6.36280969,16 3.45780969,13.563 3.05180969,10.332 L3.05180969,10.332 Z M27.0228097,25.734 C26.7138097,25.536 26.3818097,25.385 26.0368097,25.279 C26.8808097,24.857 27.4678097,23.992 27.4678097,22.985 C27.4678097,22.806 27.4488097,22.631 27.4128097,22.461 C28.9338097,21.579 29.9558097,19.631 29.1728097,17.521 C28.7778097,16.46 27.9008097,15.654 26.8218097,15.263 C28.0258097,14.097 28.8638097,12.375 29.1118097,10.458 C29.3808097,8.375 28.7418097,6.334 27.3148097,4.711 C25.7998097,2.988 23.6148097,2 21.3208097,2 L9.49880969,2 C7.35380969,2 5.30580969,2.929 3.87680969,4.549 C2.45180969,6.164 1.78980969,8.317 2.05880969,10.457 C2.52780969,14.187 5.85980969,17 9.80980969,17 L11.1608097,17 C11.0298097,17.224 10.9148097,17.457 10.8338097,17.708 C10.4258097,18.972 10.6288097,20.298 11.3908097,21.346 C12.1438097,22.382 13.3538097,23 14.6258097,23 L16.0918097,23 L18.3648097,25.984 C18.4608097,26.111 18.6088097,26.182 18.7628097,26.182 C18.8158097,26.182 18.8698097,26.173 18.9228097,26.155 C19.1258097,26.087 19.2628097,25.896 19.2628097,25.682 L19.2628097,23 L22.3228097,23 C22.3288097,24.009 22.9218097,24.875 23.7738097,25.291 C22.0438097,25.815 20.7668097,27.493 20.7668097,29.5 C20.7668097,29.776 20.9898097,30 21.2668097,30 L28.5228097,30 C28.7998097,30 29.0228097,29.776 29.0228097,29.5 C29.0228097,27.945 28.2758097,26.538 27.0228097,25.734 L27.0228097,25.734 Z M6.70380969,13 C6.92480969,11.53 8.10080969,10.405 9.51680969,10.405 C10.0258097,10.405 10.5258097,10.553 10.9618097,10.833 C11.6938097,11.303 12.1908097,12.105 12.3278097,13 L6.70380969,13 Z M9.51680969,6.278 C10.2958097,6.278 10.9308097,6.912 10.9308097,7.692 C10.9308097,8.472 10.2958097,9.106 9.51680969,9.106 C8.73680969,9.106 8.10180969,8.472 8.10180969,7.692 C8.10180969,6.912 8.73680969,6.278 9.51680969,6.278 L9.51680969,6.278 Z M13.3658097,13.5 C13.3658097,12.052 12.6698097,10.74 11.5018097,9.991 C11.3048097,9.865 11.0958097,9.766 10.8818097,9.679 C11.5138097,9.244 11.9308097,8.516 11.9308097,7.692 C11.9308097,6.361 10.8478097,5.278 9.51680969,5.278 C8.18480969,5.278 7.10180969,6.361 7.10180969,7.692 C7.10180969,8.518 7.51980969,9.247 8.15480969,9.683 C6.70480969,10.27 5.66680969,11.754 5.66680969,13.5 C5.66680969,13.776 5.89080969,14 6.16680969,14 L12.8658097,14 C13.1418097,14 13.3658097,13.776 13.3658097,13.5 L13.3658097,13.5 Z" id="Fill-4"></path>
        </g>
    </g>
</svg>